<svg width="174" height="33" viewBox="0 0 174 33" fill="none" xmlns="http://www.w3.org/2000/svg">
<g clip-path="url(#clip0_10423_251)">
<path d="M0 0H12.7564C15.1862 0 17.0085 0.615024 18.3584 1.64005C19.8433 2.8701 20.6532 4.64682 20.6532 6.83354C20.6532 9.362 19.6408 10.9337 17.616 11.8904V12.0271C20.3158 12.9154 21.8681 15.3755 21.8681 18.3139C21.8681 21.1157 20.7882 23.3025 19.0333 24.6692C17.5485 25.7625 15.6586 26.2409 13.0939 26.2409H0V0ZM11.474 10.2504C12.8239 10.2504 13.8363 9.49867 13.8363 7.92696C13.8363 6.42353 12.8239 5.67184 11.4065 5.67184H7.01942V10.182H11.474V10.2504ZM12.0815 20.4323C13.6338 20.4323 14.7812 19.4756 14.7812 17.7673C14.7812 15.9222 13.5663 15.1022 12.0815 15.1022H7.08687V20.5007H12.0815V20.4323Z" fill="#230B59"/>
<path d="M23.0156 0H29.6975V26.3092H23.0156V0Z" fill="#230B59"/>
<path d="M31.0474 16.9473C31.0474 11.0021 34.827 7.03857 40.6991 7.03857C46.571 7.03857 50.283 11.0704 50.283 16.9473C50.283 22.8924 46.571 26.8559 40.6991 26.8559C34.827 26.8559 31.0474 22.8924 31.0474 16.9473ZM43.6013 16.9473C43.6013 13.6672 42.5889 11.6171 40.5641 11.6171C38.5392 11.6171 37.5943 13.6672 37.5943 16.9473C37.5943 20.2274 38.5392 22.3458 40.5641 22.3458C42.5889 22.2774 43.6013 20.2274 43.6013 16.9473Z" fill="#230B59"/>
<path d="M51.0256 16.9473C51.0256 11.0021 54.8055 7.03857 60.6774 7.03857C66.5492 7.03857 70.1937 11.0021 70.1937 16.9473C70.1937 22.8924 66.4815 26.8559 60.6097 26.8559C54.8055 26.8559 51.0256 22.8924 51.0256 16.9473ZM63.5797 16.9473C63.5797 13.6672 62.5673 11.6171 60.5425 11.6171C58.5177 11.6171 57.5724 13.6672 57.5724 16.9473C57.5724 20.2274 58.5177 22.3458 60.5425 22.3458C62.5673 22.2774 63.5797 20.2274 63.5797 16.9473Z" fill="#230B59"/>
<path d="M71.5435 7.5169H77.7533V10.3186H77.8882C79.1032 8.13192 80.7905 6.97021 83.4903 6.97021C85.8526 6.97021 87.6071 8.13192 88.4846 10.182H88.6195C90.1048 7.7219 92.0619 6.97021 94.3565 6.97021C98.6764 6.97021 100.499 10.182 100.499 14.4871V26.2408H94.0191V15.6488C94.0191 13.7354 93.4118 12.5054 91.7922 12.5054C90.172 12.5054 89.3622 14.0088 89.3622 16.0588V26.2408H82.8825V15.6488C82.8825 13.7354 82.2753 12.5054 80.6557 12.5054C79.0355 12.5054 78.2257 14.0088 78.2257 16.0588V26.2408H71.5435V7.5169Z" fill="#230B59"/>
<path d="M108.666 23.7808H108.598V26.2409H102.389V0H108.868V9.43033H109.003C110.218 7.79028 111.906 6.90187 114.268 6.90187C118.925 6.90187 121.624 11.1387 121.624 16.8106C121.624 23.1658 118.722 26.8559 113.863 26.8559C111.838 26.8559 109.745 25.8992 108.666 23.7808ZM114.943 16.7422C114.943 13.7355 113.863 11.7537 111.906 11.7537C109.881 11.7537 108.666 13.7355 108.666 16.7422C108.666 19.749 109.948 21.7308 111.906 21.7308C113.863 21.7308 114.943 19.8173 114.943 16.7422Z" fill="#230B59"/>
<path d="M122.367 16.8788C122.367 11.002 126.214 6.97021 131.749 6.97021C134.516 6.97021 136.608 7.85857 138.228 9.43029C140.388 11.5487 141.333 14.8288 141.265 18.6556H128.846C129.117 20.979 130.196 22.2091 132.154 22.2091C133.301 22.2091 134.314 21.6624 134.719 20.4323H140.995C139.916 24.7375 136.608 26.8559 131.951 26.8559C126.214 26.7875 122.367 22.8241 122.367 16.8788ZM128.846 14.8971H134.786C134.651 12.6421 133.436 11.4804 131.884 11.4804C130.061 11.412 129.049 12.7104 128.846 14.8971Z" fill="#230B59"/>
<path d="M148.622 10.7288H148.757C150.107 8.13202 151.862 7.10693 154.089 7.10693C154.629 7.10693 154.967 7.17527 155.169 7.31194V13.0522H155.034C151.187 12.3688 148.959 14.2139 148.959 18.4507V26.3093H142.413V7.51695H148.622V10.7288Z" fill="#230B59"/>
<path d="M155.844 26.3092H162.121C162.391 27.1292 163.201 27.8809 164.753 27.8809C166.845 27.8809 167.588 26.5825 167.588 24.6008V23.2341H167.453C166.441 24.4641 165.023 25.3525 162.998 25.3525C159.016 25.3525 155.506 22.3457 155.506 16.4688C155.506 11.0703 158.341 6.90186 162.661 6.90186C165.158 6.90186 166.643 7.92689 167.656 9.4986H167.791V7.44854H174V23.7124C174 26.7192 172.988 29.0426 171.435 30.4093C169.815 31.8443 167.52 32.4593 164.888 32.4593C159.893 32.5277 156.452 30.4776 155.844 26.3092ZM167.858 16.1955C167.858 13.8721 166.778 11.9587 164.888 11.9587C163.066 11.9587 161.919 13.5987 161.919 16.1955C161.919 18.7239 163.066 20.5006 164.888 20.5006C166.711 20.5006 167.858 18.6555 167.858 16.1955Z" fill="#230B59"/>
</g>
<defs>
<clipPath id="clip0_10423_251">
<rect width="174" height="33" fill="white"/>
</clipPath>
</defs>
</svg>
