<svg width="235" height="60" viewBox="0 0 235 60" fill="none" xmlns="http://www.w3.org/2000/svg">
<g clip-path="url(#clip0_10423_267)">
<path d="M60.1247 36.145C59.034 36.145 58.0342 36.6941 57.4889 37.6092C56.9435 38.5242 56.9435 39.7138 57.4889 40.6289C58.0342 41.5439 59.034 42.1387 60.1247 42.093C61.7607 42.0472 63.0332 40.7204 63.0332 39.119C63.0787 37.5177 61.7607 36.1908 60.1247 36.145Z" fill="#230B59"/>
<path d="M56.3528 43.9233C54.9441 43.9233 53.8079 45.0672 53.8079 46.4398C53.8079 47.8582 54.9441 49.002 56.3528 49.002C57.7617 49.002 58.8978 47.8582 58.8978 46.4398C58.8978 45.0672 57.7617 43.9233 56.3528 43.9233Z" fill="#230B59"/>
<path d="M50.8333 54.3968C52.0373 54.3564 52.9809 53.3411 52.9408 52.1288C52.9007 50.9167 51.8921 49.9667 50.6881 50.0071C49.4841 50.0475 48.5405 51.0628 48.5806 52.275C48.6207 53.4872 49.6293 54.4371 50.8333 54.3968Z" fill="#230B59"/>
<path d="M44.446 54.1265C43.4462 54.1265 42.6736 54.9043 42.6736 55.9108C42.6736 56.9174 43.4462 57.6952 44.446 57.6952C45.4458 57.6952 46.2184 56.9174 46.2184 55.9108C46.2184 54.9043 45.4458 54.1265 44.446 54.1265Z" fill="#230B59"/>
<path d="M38.2654 56.2769C37.4473 56.2769 36.7656 56.9632 36.7656 57.7867C36.7656 58.6102 37.4473 59.2966 38.2654 59.2966C39.0834 59.2966 39.7651 58.6102 39.7651 57.7867C39.8105 56.9632 39.1288 56.2769 38.2654 56.2769Z" fill="#230B59"/>
<path d="M32.4937 57.146C31.7666 57.146 31.1758 57.7408 31.1758 58.4729C31.1758 59.2049 31.7666 59.7997 32.4937 59.7997C33.2209 59.7997 33.8116 59.2049 33.8116 58.4729C33.7662 57.7408 33.1754 57.146 32.4937 57.146Z" fill="#230B59"/>
<path d="M26.6767 56.2769C25.8587 56.2769 25.177 56.9632 25.177 57.7867C25.177 58.6102 25.8587 59.2966 26.6767 59.2966C27.4947 59.2966 28.1764 58.6102 28.1764 57.7867C28.1764 56.9632 27.4947 56.2769 26.6767 56.2769Z" fill="#230B59"/>
<path d="M20.4962 54.0806C19.8599 54.0806 19.2691 54.4009 18.951 54.9499C18.6329 55.499 18.6329 56.1852 18.951 56.7343C19.2691 57.2833 19.8599 57.6036 20.4962 57.6036C21.4505 57.6036 22.2685 56.8258 22.2685 55.8192C22.2231 54.9041 21.4505 54.1263 20.4962 54.0806Z" fill="#230B59"/>
<path d="M14.1791 50.0083C13.4066 50.0083 12.6794 50.42 12.2704 51.1064C11.8614 51.7927 11.8614 52.6162 12.2704 53.3025C12.6794 53.9888 13.3611 54.4006 14.1791 54.4006C15.3607 54.4006 16.3605 53.4398 16.3605 52.2044C16.3605 51.0149 15.4062 50.0083 14.1791 50.0083Z" fill="#230B59"/>
<path d="M8.58917 43.9233C7.18032 43.9233 6.04419 45.0672 6.04419 46.4855C6.04419 47.9039 7.18032 49.0478 8.58917 49.0478C9.99795 49.0478 11.1341 47.9039 11.1341 46.4855C11.0886 45.0672 9.99795 43.9233 8.58917 43.9233Z" fill="#230B59"/>
<path d="M4.81733 36.145C3.72663 36.0993 2.72682 36.6941 2.18147 37.6092C1.63612 38.5242 1.63612 39.7138 2.18147 40.6289C2.72682 41.544 3.72663 42.1388 4.81733 42.093C6.45337 42.0473 7.72589 40.7204 7.72589 39.119C7.72589 37.5177 6.40793 36.1908 4.81733 36.145Z" fill="#230B59"/>
<path d="M3.45388 26.4453C1.54516 26.4453 0 28.0009 0 29.9226C0 31.8442 1.54516 33.3998 3.45388 33.3998C5.3626 33.3998 6.90778 31.8442 6.90778 29.9226C6.86234 28.0009 5.3626 26.4453 3.45388 26.4453Z" fill="#230B59"/>
<path d="M4.81733 17.6606C3.72663 17.6606 2.72682 18.2097 2.18147 19.1248C1.63612 20.0398 1.63612 21.2294 2.18147 22.1445C2.72682 23.0596 3.72663 23.6544 4.81733 23.6086C6.45337 23.5629 7.72589 22.236 7.72589 20.6347C7.72589 19.0333 6.40793 17.7064 4.81733 17.6606Z" fill="#230B59"/>
<path d="M8.5892 10.752C7.68029 10.752 6.81681 11.2095 6.36233 12.033C5.90787 12.8108 5.90787 13.8174 6.36233 14.5952C6.81681 15.373 7.68029 15.8763 8.5892 15.8763C9.95254 15.8305 11.0887 14.7325 11.0887 13.3141C11.0432 11.9415 9.95254 10.7977 8.5892 10.752Z" fill="#230B59"/>
<path d="M14.179 5.35303C12.9974 5.35303 11.9976 6.31385 11.9976 7.54922C11.9976 8.73879 12.9519 9.74535 14.179 9.74535C15.3606 9.74535 16.3604 8.78454 16.3604 7.54922C16.3604 6.3596 15.406 5.35303 14.179 5.35303Z" fill="#230B59"/>
<path d="M20.496 2.10449C19.5417 2.10449 18.7236 2.8823 18.7236 3.88888C18.7236 4.8497 19.4962 5.67326 20.496 5.67326C21.4504 5.67326 22.2684 4.89545 22.2684 3.88888C22.2229 2.92805 21.4504 2.10449 20.496 2.10449Z" fill="#230B59"/>
<path d="M26.6767 0.45752C25.8132 0.45752 25.1316 1.14382 25.1316 2.01313C25.1316 2.88245 25.8132 3.56875 26.6767 3.56875C27.4947 3.56875 28.1764 2.88245 28.1764 2.05889C28.131 1.14382 27.4947 0.45752 26.6767 0.45752Z" fill="#230B59"/>
<path d="M32.4483 0C31.7212 0 31.1304 0.594794 31.1304 1.32685C31.1304 2.05891 31.7212 2.6537 32.4483 2.6537C33.1755 2.6537 33.7662 2.05891 33.7662 1.32685C33.7662 0.594794 33.1755 0 32.4483 0Z" fill="#230B59"/>
<path d="M38.2654 0.45752C37.4473 0.45752 36.7656 1.14382 36.7656 1.96738C36.7656 2.79095 37.4473 3.47724 38.2654 3.47724C39.0834 3.47724 39.7651 2.79095 39.7651 1.96738C39.8105 1.14382 39.1288 0.45752 38.2654 0.45752Z" fill="#230B59"/>
<path d="M44.4459 2.10449C43.8096 2.10449 43.2188 2.42477 42.9007 2.97381C42.5826 3.52285 42.5826 4.20915 42.9007 4.75819C43.2188 5.30723 43.8096 5.62751 44.4459 5.62751C45.4002 5.62751 46.2182 4.8497 46.2182 3.84312C46.2182 2.83655 45.4457 2.10449 44.4459 2.10449Z" fill="#230B59"/>
<path d="M50.763 5.39893C49.5814 5.39893 48.5815 6.35974 48.5815 7.59506C48.5815 8.7847 49.5359 9.79127 50.763 9.79127C51.9446 9.79127 52.9444 8.83045 52.9444 7.59506C52.9444 6.35974 51.9446 5.39893 50.763 5.39893Z" fill="#230B59"/>
<path d="M56.3528 10.752C54.9441 10.752 53.8079 11.8958 53.8079 13.3141C53.8079 14.7325 54.9441 15.8763 56.3528 15.8763C57.7617 15.8763 58.8978 14.7325 58.8978 13.3141C58.8978 11.8958 57.7617 10.752 56.3528 10.752Z" fill="#230B59"/>
<path d="M60.1247 17.6606C59.034 17.6606 58.0342 18.2097 57.4889 19.1248C56.9435 20.0398 56.9435 21.2294 57.4889 22.1445C58.0342 23.0596 59.034 23.6544 60.1247 23.6086C61.7607 23.5629 63.0332 22.236 63.0332 20.6347C63.0332 18.9875 61.7607 17.6606 60.1247 17.6606Z" fill="#230B59"/>
<path d="M46.4909 34.4521C45.991 34.4521 45.5365 34.681 45.3093 35.0927C45.0821 35.5045 45.0821 36.0535 45.3093 36.4653C45.5365 36.8771 45.991 37.1516 46.4909 37.1059C47.218 37.0601 47.7634 36.4653 47.7634 35.779C47.8089 35.0927 47.218 34.4979 46.4909 34.4521Z" fill="#230B59"/>
<path d="M43.1736 39.4395C42.6736 39.4395 42.2192 39.6682 41.9919 40.08C41.7647 40.4918 41.7647 41.0408 41.9919 41.4526C42.2192 41.8643 42.7191 42.1389 43.1736 42.0932C43.9007 42.0474 44.446 41.4526 44.446 40.7663C44.446 40.08 43.9007 39.4852 43.1736 39.4395Z" fill="#230B59"/>
<path d="M38.2199 42.6421C37.72 42.6421 37.2201 42.9167 36.9474 43.3742C36.6748 43.8317 36.6748 44.3807 36.9474 44.8383C37.2201 45.2958 37.6746 45.5704 38.2199 45.5704C39.0379 45.5704 39.6742 44.9298 39.6742 44.1062C39.6742 43.2827 39.0379 42.6421 38.2199 42.6421Z" fill="#230B59"/>
<path d="M32.4029 43.5112C31.3122 43.5112 30.4487 44.3806 30.4487 45.4787C30.4487 46.5768 31.3122 47.4461 32.4029 47.4461C33.4936 47.4461 34.357 46.5768 34.357 45.4787C34.3116 44.3806 33.4481 43.5112 32.4029 43.5112Z" fill="#230B59"/>
<path d="M26.5403 42.3218C25.3133 42.3218 24.3135 43.3284 24.3135 44.5637C24.3135 45.7991 25.3133 46.8056 26.5403 46.8056C27.7674 46.8056 28.7672 45.7991 28.7672 44.5637C28.7672 43.3284 27.7674 42.3218 26.5403 42.3218Z" fill="#230B59"/>
<path d="M21.2685 38.5703C19.9051 38.5703 18.8145 39.6684 18.8145 41.041C18.8145 42.4136 19.9051 43.5117 21.2685 43.5117C22.6319 43.5117 23.7226 42.4136 23.7226 41.041C23.7226 39.6684 22.6319 38.5703 21.2685 38.5703Z" fill="#230B59"/>
<path d="M17.7692 33.5371C16.633 33.5371 15.7241 34.4522 15.7241 35.596C15.7241 36.7398 16.633 37.6549 17.7692 37.6549C18.9054 37.6549 19.8143 36.7398 19.8143 35.596C19.8597 34.4979 18.9054 33.5371 17.7692 33.5371Z" fill="#230B59"/>
<path d="M16.9512 28.0469C16.0877 28.0469 15.3606 28.7789 15.3606 29.6483C15.3606 30.5175 16.0877 31.2496 16.9512 31.2496C17.8147 31.2496 18.5418 30.5175 18.5418 29.6483C18.5418 28.7332 17.8601 28.0469 16.9512 28.0469Z" fill="#230B59"/>
<path d="M18.3601 22.6479C17.633 22.6479 17.0422 23.2427 17.0422 23.9748C17.0422 24.7068 17.633 25.3017 18.3601 25.3017C19.0873 25.3017 19.6781 24.7068 19.6781 23.9748C19.7235 23.2427 19.0873 22.6479 18.3601 22.6479Z" fill="#230B59"/>
<path d="M21.7231 17.7065C21.2232 17.7065 20.7688 17.9353 20.5416 18.347C20.3143 18.7589 20.3143 19.3079 20.5416 19.7197C20.7688 20.1314 21.2686 20.406 21.7231 20.3602C22.4503 20.3602 23.041 19.7654 23.041 19.0334C22.9956 18.3013 22.4048 17.7065 21.7231 17.7065Z" fill="#230B59"/>
<path d="M26.6312 14.2295C25.8132 14.2295 25.177 14.8701 25.177 15.6936C25.177 16.5172 25.8132 17.1577 26.6312 17.1577C27.4493 17.1577 28.0855 16.5172 28.0855 15.6936C28.0855 14.9158 27.4493 14.2295 26.6312 14.2295Z" fill="#230B59"/>
<path d="M34.4376 14.3721C34.479 13.2863 33.6383 12.3722 32.5598 12.3306C31.4813 12.2889 30.5734 13.1353 30.532 14.2211C30.4906 15.3069 31.3313 16.2209 32.4098 16.2626C33.4883 16.3043 34.3961 15.4579 34.4376 14.3721Z" fill="#230B59"/>
<path d="M38.3108 12.9941C37.0838 12.9941 36.084 14.0007 36.084 15.236C36.084 16.4714 37.0838 17.478 38.3108 17.478C39.5379 17.478 40.5377 16.4714 40.5377 15.236C40.5377 14.0007 39.5379 12.9941 38.3108 12.9941Z" fill="#230B59"/>
<path d="M43.5825 16.2881C42.2191 16.2881 41.1284 17.3862 41.1284 18.7588C41.1284 20.1314 42.2191 21.2294 43.5825 21.2294C44.9458 21.2294 46.0366 20.1314 46.0366 18.7588C46.0366 17.3862 44.9458 16.2881 43.5825 16.2881Z" fill="#230B59"/>
<path d="M47.0819 22.0991C45.9458 22.0991 45.0369 23.0142 45.0369 24.158C45.0369 25.3018 45.9458 26.2169 47.0819 26.2169C48.218 26.2169 49.1269 25.3018 49.1269 24.158C49.1269 23.0142 48.218 22.0991 47.0819 22.0991Z" fill="#230B59"/>
<path d="M41.7192 33.6743C42.3969 33.6743 42.9462 33.1212 42.9462 32.439C42.9462 31.7567 42.3969 31.2036 41.7192 31.2036C41.0416 31.2036 40.4922 31.7567 40.4922 32.439C40.4922 33.1212 41.0416 33.6743 41.7192 33.6743Z" fill="#230B59"/>
<path d="M39.3105 35.0469C38.3107 35.0469 37.4927 35.8704 37.4927 36.877C37.4927 37.8836 38.3107 38.7071 39.3105 38.7071C40.3103 38.7071 41.1283 37.8836 41.1283 36.877C41.1738 35.8704 40.3557 35.0469 39.3105 35.0469Z" fill="#230B59"/>
<path d="M34.6297 37.5176C33.5844 37.5176 32.7209 38.3869 32.7209 39.4392C32.7209 40.4915 33.5844 41.3609 34.6297 41.3609C35.6749 41.3609 36.5384 40.4915 36.5384 39.4392C36.5384 38.3869 35.6749 37.5176 34.6297 37.5176Z" fill="#230B59"/>
<path d="M29.0852 37.3804C28.4944 37.3804 27.9036 37.7007 27.6309 38.2497C27.3128 38.7988 27.3128 39.4393 27.6309 39.9426C27.9491 40.4916 28.4944 40.8119 29.0852 40.8119C30.0396 40.8119 30.7667 40.0341 30.7667 39.119C30.8121 38.1582 30.0396 37.3804 29.0852 37.3804Z" fill="#230B59"/>
<path d="M24.9951 34.5894C24.3134 34.5894 23.7681 35.1384 23.7681 35.8247C23.7681 36.511 24.3134 37.0601 24.9951 37.0601C25.6768 37.0601 26.2222 36.511 26.2222 35.8247C26.2676 35.1842 25.6768 34.5894 24.9951 34.5894Z" fill="#230B59"/>
<path d="M23.3591 30.9751C22.8592 30.9751 22.4502 31.3869 22.4502 31.8902C22.4502 32.3935 22.8592 32.8052 23.3591 32.8052C23.859 32.8052 24.268 32.3935 24.268 31.8902C24.268 31.3869 23.859 30.9751 23.3591 30.9751Z" fill="#230B59"/>
<path d="M23.2683 26.2627C22.5866 26.2627 22.0413 26.8118 22.0413 27.498C22.0413 28.1843 22.5866 28.7334 23.2683 28.7334C23.95 28.7334 24.4954 28.1843 24.4954 27.498C24.4954 26.8118 23.95 26.2627 23.2683 26.2627Z" fill="#230B59"/>
<path d="M25.6767 21.1836C24.6769 21.1836 23.8589 22.0072 23.8589 23.0137C23.8589 24.0204 24.6769 24.8439 25.6767 24.8439C26.6765 24.8439 27.4945 24.0204 27.4945 23.0137C27.4945 22.0072 26.6765 21.1836 25.6767 21.1836Z" fill="#230B59"/>
<path d="M30.3577 18.5303C29.3124 18.5303 28.449 19.3996 28.449 20.4519C28.449 21.5042 29.3124 22.3735 30.3577 22.3735C31.4029 22.3735 32.2664 21.5042 32.2664 20.4519C32.2664 19.3996 31.4029 18.5303 30.3577 18.5303Z" fill="#230B59"/>
<path d="M35.9022 19.125C35.2659 19.125 34.7205 19.4452 34.4024 19.9486C34.0843 20.4976 34.0843 21.1381 34.4024 21.6871C34.7205 22.2362 35.3114 22.5565 35.9022 22.5107C36.8111 22.465 37.5382 21.733 37.5382 20.8179C37.5382 19.9028 36.8111 19.1707 35.9022 19.125Z" fill="#230B59"/>
<path d="M39.9467 22.7852C39.265 22.7852 38.7197 23.3342 38.7197 24.0205C38.7197 24.7068 39.265 25.2558 39.9467 25.2558C40.6284 25.2558 41.1737 24.7068 41.1737 24.0205C41.2192 23.3342 40.6739 22.7852 39.9467 22.7852Z" fill="#230B59"/>
<path d="M41.6738 27.1318C41.1739 27.1318 40.7649 27.5436 40.7649 28.0469C40.7649 28.5502 41.1739 28.962 41.6738 28.962C42.1737 28.962 42.5827 28.5502 42.5827 28.0469C42.5827 27.5436 42.1737 27.1318 41.6738 27.1318Z" fill="#230B59"/>
<path d="M47.8999 28.5503C47.0365 28.5503 46.3093 29.2824 46.3093 30.1517C46.3093 31.021 47.0365 31.7531 47.8999 31.7531C48.7634 31.7531 49.4906 31.021 49.4906 30.1517C49.4906 29.2824 48.7634 28.5503 47.8999 28.5503Z" fill="#230B59"/>
<path d="M54.4894 30.5176C53.535 30.5176 52.8079 31.2954 52.8079 32.2105C52.8079 33.1713 53.5805 33.9033 54.4894 33.9033C55.4437 33.9033 56.1709 33.1255 56.1709 32.2105C56.1709 31.2954 55.4437 30.5176 54.4894 30.5176Z" fill="#230B59"/>
<path d="M52.8079 36.5112C51.9444 36.5112 51.2173 37.2433 51.2173 38.1126C51.2173 38.9819 51.9444 39.714 52.8079 39.714C53.6714 39.714 54.3985 38.9819 54.3985 38.1126C54.3985 37.2433 53.7168 36.5112 52.8079 36.5112Z" fill="#230B59"/>
<path d="M49.9449 41.5439C49.2178 41.5439 48.5815 42.1388 48.5815 42.9165C48.5815 43.6486 49.1724 44.2892 49.9449 44.2892C50.6721 44.2892 51.2628 43.6486 51.2628 42.9165C51.2628 42.1845 50.6721 41.5897 49.9449 41.5439Z" fill="#230B59"/>
<path d="M46.491 45.2959C46.0821 45.2959 45.673 45.5246 45.4458 45.8906C45.2186 46.2567 45.2186 46.7142 45.4458 47.0803C45.673 47.4463 46.0366 47.675 46.491 47.675C47.1273 47.675 47.6727 47.1718 47.6727 46.4855C47.6727 45.8449 47.1273 45.2959 46.491 45.2959Z" fill="#230B59"/>
<path d="M42.8553 48.041C42.31 48.041 41.8555 48.4985 41.8555 49.0476C41.8555 49.5966 42.31 50.0542 42.8553 50.0542C43.4006 50.0542 43.8551 49.5966 43.8551 49.0476C43.8551 48.4985 43.4006 48.041 42.8553 48.041Z" fill="#230B59"/>
<path d="M38.7197 49.5967C38.0835 49.5967 37.5381 50.1 37.5381 50.7863C37.5381 51.4268 38.038 51.9759 38.7197 51.9759C39.3559 51.9759 39.9013 51.4726 39.9013 50.7863C39.8559 50.1 39.3559 49.5967 38.7197 49.5967Z" fill="#230B59"/>
<path d="M33.857 50.3745C33.1298 50.3745 32.4937 50.9693 32.4937 51.7471C32.4937 52.4791 33.0844 53.1197 33.857 53.1197C34.5841 53.1197 35.2204 52.5249 35.2204 51.7471C35.175 50.9693 34.5841 50.3745 33.857 50.3745Z" fill="#230B59"/>
<path d="M28.3126 49.8257C27.3583 49.8257 26.5857 50.6035 26.5857 51.5643C26.5857 52.5251 27.3583 53.303 28.3126 53.303C29.267 53.303 30.0396 52.5251 30.0396 51.5643C30.0396 50.6035 29.267 49.8257 28.3126 49.8257Z" fill="#230B59"/>
<path d="M22.4501 47.7207C21.3139 47.7207 20.405 48.6358 20.405 49.7797C20.405 50.9235 21.3139 51.8385 22.4501 51.8385C23.5863 51.8385 24.4952 50.9235 24.4952 49.7797C24.5406 48.6358 23.5863 47.7207 22.4501 47.7207Z" fill="#230B59"/>
<path d="M17.3149 43.7861C16.4515 43.7861 15.6334 44.2436 15.179 44.9757C14.7245 45.7535 14.7245 46.6686 15.179 47.4464C15.6334 48.2242 16.4515 48.6817 17.3149 48.636C18.6329 48.5902 19.6781 47.5379 19.6781 46.211C19.6781 44.93 18.6329 43.8319 17.3149 43.7861Z" fill="#230B59"/>
<path d="M12.9974 37.9297C11.5432 37.9297 10.3616 39.1193 10.3616 40.5834C10.3616 42.0475 11.5432 43.237 12.9974 43.237C14.4517 43.237 15.6333 42.0475 15.6333 40.5834C15.6333 39.0735 14.4517 37.9297 12.9974 37.9297Z" fill="#230B59"/>
<path d="M12.6473 34.0304C12.7292 32.8709 11.8619 31.8642 10.7102 31.7817C9.5586 31.6994 8.55867 32.5725 8.47679 33.732C8.39491 34.8915 9.26218 35.8982 10.4139 35.9805C11.5655 36.063 12.5655 35.1898 12.6473 34.0304Z" fill="#230B59"/>
<path d="M12.1115 27.6464C12.1629 26.7129 11.4528 25.9142 10.5255 25.8625C9.59825 25.8108 8.80493 26.5256 8.7536 27.4592C8.7022 28.3927 9.41228 29.1915 10.3395 29.2432C11.2668 29.2948 12.0602 28.58 12.1115 27.6464Z" fill="#230B59"/>
<path d="M12.134 20.04C11.2705 20.04 10.5435 20.772 10.5435 21.6414C10.5435 22.5107 11.2705 23.2427 12.134 23.2427C12.9975 23.2427 13.7246 22.5107 13.7246 21.6414C13.7246 20.772 12.9975 20.04 12.134 20.04Z" fill="#230B59"/>
<path d="M14.997 15.5103C14.4971 15.5103 14.0426 15.739 13.8154 16.1965C13.5882 16.6083 13.5882 17.1573 13.8154 17.5691C14.0426 17.9809 14.5426 18.2555 14.997 18.2555C15.7241 18.2555 16.315 17.6149 16.315 16.8828C16.315 16.105 15.7241 15.5103 14.997 15.5103Z" fill="#230B59"/>
<path d="M18.4509 12.1245C17.8147 12.1245 17.2693 12.6278 17.2693 13.3141C17.2693 13.9546 17.7692 14.5037 18.4509 14.5037C19.1326 14.5037 19.6325 14.0004 19.6325 13.3141C19.6325 12.6736 19.0871 12.1245 18.4509 12.1245Z" fill="#230B59"/>
<path d="M22.0867 9.74561C21.5414 9.74561 21.0869 10.2032 21.0869 10.7522C21.0869 11.3012 21.5414 11.7588 22.0867 11.7588C22.6321 11.7588 23.0865 11.3012 23.0865 10.7522C23.0865 10.1574 22.6321 9.74561 22.0867 9.74561Z" fill="#230B59"/>
<path d="M26.2221 7.86963C25.5858 7.86963 25.0405 8.37288 25.0405 9.0592C25.0405 9.69977 25.5404 10.2488 26.2221 10.2488C26.8584 10.2488 27.4037 9.74552 27.4037 9.0592C27.4037 8.37288 26.8584 7.86963 26.2221 7.86963Z" fill="#230B59"/>
<path d="M31.0849 6.68018C30.585 6.68018 30.1305 6.90893 29.9033 7.36649C29.6761 7.77824 29.6761 8.32731 29.9033 8.73906C30.1305 9.15088 30.6305 9.42538 31.0849 9.42538C31.812 9.42538 32.4029 8.78481 32.4029 8.05281C32.4029 7.32074 31.812 6.72593 31.0849 6.68018Z" fill="#230B59"/>
<path d="M36.6292 6.45117C35.993 6.45117 35.4022 6.77145 35.0841 7.3205C34.7659 7.8695 34.7659 8.55581 35.0841 9.10488C35.4022 9.65388 35.993 9.9742 36.6292 9.9742C37.5835 9.9742 38.3561 9.15063 38.3561 8.18981C38.3561 7.229 37.5835 6.45117 36.6292 6.45117Z" fill="#230B59"/>
<path d="M42.31 7.77783C41.1738 7.77783 40.2195 8.6929 40.2195 9.88254C40.2195 11.0264 41.1284 11.9872 42.31 11.9872C43.4462 11.9872 44.4005 11.0721 44.4005 9.88254C44.4005 8.73865 43.4462 7.77783 42.31 7.77783Z" fill="#230B59"/>
<path d="M47.6726 11.0723C46.3092 11.0723 45.2639 12.1703 45.2639 13.4972C45.2639 14.824 46.3546 15.9221 47.6726 15.9221C49.0359 15.9221 50.0811 14.824 50.0811 13.4972C50.0811 12.1703 48.9905 11.0723 47.6726 11.0723Z" fill="#230B59"/>
<path d="M51.9446 16.5625C50.9902 16.5625 50.1268 17.0658 49.6269 17.8893C49.127 18.7129 49.127 19.7195 49.6269 20.543C50.1268 21.3666 50.9902 21.8699 51.9446 21.8699C53.3989 21.8242 54.535 20.6803 54.535 19.2162C54.4896 17.7978 53.3534 16.6082 51.9446 16.5625Z" fill="#230B59"/>
<path d="M54.3532 23.8374C53.626 23.8374 52.8989 24.2035 52.5353 24.844C52.1718 25.4845 52.1718 26.3081 52.5353 26.9487C52.8989 27.5892 53.626 28.001 54.3532 27.9552C55.4893 27.9095 56.3528 26.9944 56.3528 25.8964C56.3528 24.7982 55.4893 23.8832 54.3532 23.8374Z" fill="#230B59"/>
<path d="M64.942 29.8772C64.942 31.7988 63.3968 33.3544 61.4881 33.3544C59.5794 33.3544 58.0342 31.7988 58.0342 29.8772C58.0342 27.9555 59.5794 26.3999 61.4881 26.3999C63.3968 26.4457 64.942 28.0013 64.942 29.8772Z" fill="#230B59"/>
<path d="M235 35.2303C235 31.936 233.137 30.1974 230.228 29.0078C227.956 28.0927 225.956 27.3149 224.412 26.6744C222.911 26.0796 221.594 25.0273 221.594 23.8834C221.594 22.3278 223.502 21.4128 226.047 21.4128C229.047 21.4128 231.41 21.8245 233.637 22.0533H233.728C234.091 22.0533 234.318 21.7788 234.318 21.4128V18.8506C234.318 18.5303 234.046 18.2557 233.682 18.21C232.5 17.9355 229.501 17.2949 226.229 17.2949C219.867 17.2949 216.822 20.0401 216.822 23.8834C216.822 26.3084 217.867 28.6876 220.866 29.9229C223.866 31.1582 230.001 32.6223 230.001 35.1845C230.001 37.1977 229.092 38.2957 226.002 38.2957C222.821 38.2957 219.594 37.8382 218.23 37.6552H218.14C217.776 37.6552 217.504 37.9297 217.504 38.2957V40.7664C217.504 41.1324 217.821 41.407 218.14 41.4528C219.776 41.8188 222.866 42.3678 225.911 42.3678C232.864 42.4593 235 38.7076 235 35.2303Z" fill="#230B59"/>
<path d="M167.741 21.5957H160.878V41.4526C160.878 41.8187 160.56 42.1389 160.196 42.1389H156.788C156.424 42.1389 156.106 41.8187 156.106 41.4526V21.5957H149.244C148.88 21.5957 148.562 21.3669 148.562 20.9551V18.2099C148.562 17.8438 148.88 17.5693 149.244 17.5693H167.741C168.104 17.5693 168.422 17.8438 168.422 18.2099V20.9551C168.422 21.3669 168.104 21.5957 167.741 21.5957Z" fill="#230B59"/>
<path d="M145.563 32.6681V18.2558C145.563 17.8898 145.245 17.6152 144.881 17.6152H141.473C141.109 17.6152 140.791 17.8898 140.791 18.2558V32.6224C140.791 36.5572 138.973 38.4331 135.292 38.4331C131.611 38.4331 129.793 36.5572 129.793 32.6224V18.2558C129.793 17.8898 129.475 17.6152 129.111 17.6152H125.703C125.34 17.6152 125.021 17.8898 125.021 18.2558V32.6224C125.021 39.9887 129.793 42.4136 135.292 42.4136C140.791 42.4136 145.563 40.0344 145.563 32.6681Z" fill="#230B59"/>
<path d="M176.329 31.4781H187.328C187.691 31.4781 188.009 31.1579 188.009 30.7918V28.2753C188.009 27.9093 187.691 27.5891 187.328 27.5891H176.329V24.4321C176.329 21.5496 176.421 21.4581 179.056 21.4581H187.737C188.1 21.4581 188.418 21.1379 188.418 20.7718V18.5757C188.418 18.0723 188.236 17.9351 187.737 17.8436C186.646 17.6606 184.419 17.3403 180.329 17.3403C174.648 17.3403 171.604 17.2945 171.604 24.4321V35.3671C171.604 42.5047 174.648 42.4589 180.329 42.4589C184.419 42.4589 186.646 42.1387 187.737 41.9556C188.236 41.9099 188.418 41.7269 188.418 41.2236V39.0274C188.418 38.6614 188.1 38.3411 187.737 38.3411H179.056C176.466 38.3411 176.329 38.2496 176.329 35.3671V31.4781Z" fill="#230B59"/>
<path d="M108.479 31.4781H119.477C119.841 31.4781 120.159 31.1579 120.159 30.7918V28.2753C120.159 27.9093 119.841 27.5891 119.477 27.5891H108.479V24.4321C108.479 21.5496 108.57 21.4581 111.206 21.4581H119.886C120.25 21.4581 120.568 21.1379 120.568 20.7718V18.5757C120.568 18.0723 120.386 17.9351 119.886 17.8436C118.795 17.6606 116.568 17.3403 112.478 17.3403C106.798 17.3403 103.753 17.2945 103.753 24.4321V35.3671C103.753 42.5047 106.798 42.4589 112.478 42.4589C116.568 42.4589 118.795 42.1387 119.886 41.9556C120.386 41.9099 120.568 41.7269 120.568 41.2236V39.0274C120.568 38.6614 120.25 38.3411 119.886 38.3411H111.206C108.615 38.3411 108.479 38.2496 108.479 35.3671V31.4781Z" fill="#230B59"/>
<path d="M213.958 41.4524L208.596 32.2102C211.414 31.1121 213.232 29.099 213.232 25.4387V25.1642C213.232 19.262 208.368 17.3403 203.051 17.3403C200.552 17.3403 196.689 17.5233 194.917 17.7979C194.235 17.8894 193.826 18.1639 193.826 18.8502V41.4981C193.826 41.8642 194.144 42.1844 194.507 42.1844H197.961C198.325 42.1844 198.598 41.8642 198.598 41.4981V32.9422C199.371 32.988 202.143 33.0795 203.051 33.0795H203.824L208.777 41.4524C208.96 41.7727 209.096 42.1387 209.459 42.1387H213.641C213.913 42.1387 214.05 41.9557 214.05 41.7269C214.05 41.6354 214.004 41.5439 213.958 41.4524ZM208.46 25.4387C208.46 28.4584 206.551 29.1447 203.006 29.1447C202.416 29.1447 199.098 29.0532 198.553 29.0532V21.5954C199.143 21.5039 202.279 21.4582 203.006 21.4582C206.46 21.4582 208.46 22.5562 208.46 25.1642V25.4387Z" fill="#230B59"/>
<path d="M100.026 41.4524L94.6184 32.2102C97.4357 31.1121 99.2534 29.099 99.2534 25.4387V25.1642C99.2534 19.262 94.3909 17.3403 89.0739 17.3403C86.5742 17.3403 82.7113 17.5233 80.939 17.7979C80.257 17.8894 79.8486 18.1639 79.8486 18.8502V41.4981C79.8486 41.8642 80.1663 42.1844 80.5299 42.1844H83.9838C84.3475 42.1844 84.6204 41.8642 84.6204 41.4981V32.9422C85.3925 32.988 88.1651 33.0795 89.0739 33.0795H89.8466L94.7999 41.4524C94.9814 41.7727 95.1182 42.1387 95.4819 42.1387H99.6625C99.9354 42.1387 100.072 41.9557 100.072 41.7269C100.072 41.6354 100.072 41.5439 100.026 41.4524ZM94.527 25.4387C94.527 28.4584 92.6185 29.1447 89.1193 29.1447C88.5287 29.1447 85.211 29.0532 84.6658 29.0532V21.5954C85.2563 21.5039 88.3919 21.4582 89.1193 21.4582C92.5732 21.4582 94.527 22.5562 94.527 25.1642V25.4387Z" fill="#230B59"/>
</g>
<defs>
<clipPath id="clip0_10423_267">
<rect width="235" height="60" fill="white"/>
</clipPath>
</defs>
</svg>
