<svg width="136" height="21" viewBox="0 0 136 21" fill="none" xmlns="http://www.w3.org/2000/svg">
<path d="M9.48947 5.98213L10.9542 6.9077L10.3943 12.2L18.2761 7.39359C18.0982 5.97454 17.558 4.62518 16.7075 3.4754C15.857 2.32562 14.7249 1.41415 13.42 0.828709C12.1152 0.243271 10.6816 0.00358862 9.25729 0.132734C7.83297 0.261879 6.46589 0.755503 5.28763 1.56609C3.87033 2.5413 2.78972 3.93139 2.19421 5.54543C1.59869 7.15947 1.51749 8.91829 1.96175 10.5803L9.48947 5.98213V5.98213Z" fill="#230B59"/>
<path d="M9.73029 14.8706L8.26554 13.9448L8.82546 8.65491L2.66064 12.4176C3.48422 13.9803 4.78319 15.2408 6.36995 16.017C7.95672 16.7932 9.74914 17.0449 11.4883 16.7359C13.2275 16.4268 14.8235 15.5729 16.0457 14.2976C17.2679 13.0222 18.053 11.3914 18.2878 9.64059L9.73029 14.8706Z" fill="#230B59"/>
<path d="M10.4635 5.2206C10.7759 5.2206 11.0755 5.09651 11.2963 4.87562C11.5172 4.65474 11.6413 4.35515 11.6413 4.04277C11.6413 3.73038 11.5172 3.4308 11.2963 3.20991C11.0755 2.98902 10.7759 2.86493 10.4635 2.86493C10.1511 2.86493 9.85151 2.98902 9.63063 3.20991C9.40974 3.4308 9.28564 3.73038 9.28564 4.04277C9.28564 4.35515 9.40974 4.65474 9.63063 4.87562C9.85151 5.09651 10.1511 5.2206 10.4635 5.2206V5.2206Z" fill="white"/>
<path d="M22.5178 16.2104L24.5863 16.1803V1.5598L22.5178 1.58999V16.2104V16.2104ZM32.4128 6.0517C31.4872 6.0517 29.9114 6.4633 29.2124 7.58102V6.2596H27.2594V16.2104H29.2124V10.8255C29.2124 8.86307 30.6934 7.9837 32.1608 7.9837C33.5491 7.9837 34.4747 9.02503 34.4747 10.5733V16.2104H36.4256V10.469C36.4256 9.05522 36.0368 7.89812 35.2685 7.12532C34.5742 6.42182 33.5861 6.0517 32.4128 6.0517V6.0517ZM42.2988 13.6511L39.3113 6.26196H37.2215L41.3546 16.2104H43.2243L47.3781 6.26196H45.2676L42.2988 13.6511V13.6511ZM78.7482 6.0517C75.74 6.0517 73.5531 8.21732 73.5531 11.2051C73.5531 14.1923 75.7885 16.421 78.7482 16.421C79.7875 16.4474 80.8099 16.155 81.6781 15.5831C82.5462 15.0111 83.2184 14.187 83.6042 13.2216C83.8604 12.581 83.9837 11.8949 83.9664 11.2051C83.9664 8.21759 81.7819 6.05143 78.7482 6.05143V6.0517ZM78.7482 14.5743C76.9225 14.5743 75.5339 13.1258 75.5339 11.2051C75.5339 9.31904 76.9225 7.89812 78.755 7.89812C79.1887 7.89199 79.6192 7.9737 80.0205 8.13835C80.4218 8.30299 80.7857 8.54715 81.0901 8.85612C81.3945 9.1651 81.6333 9.5325 81.792 9.93619C81.9507 10.3399 82.026 10.7715 82.0134 11.2051C82.0134 13.1258 80.6088 14.5743 78.7482 14.5743ZM90.7098 6.05143C89.2682 6.05143 87.9491 6.67881 87.2781 7.67132V6.2596H85.3249V20.9869H87.2781V14.8218C87.9444 15.824 89.2149 16.4141 90.7305 16.4141C93.607 16.4141 95.6944 14.2388 95.6944 11.2397C95.6944 8.24068 93.5978 6.05143 90.7098 6.05143V6.05143ZM90.541 14.5743C90.1085 14.5756 89.68 14.4906 89.2807 14.3243C88.8814 14.158 88.5192 13.9138 88.2154 13.6059C87.9116 13.298 87.6722 12.9326 87.5113 12.5311C87.3503 12.1296 87.2711 11.7001 87.2781 11.2676C87.2781 9.34686 88.6804 7.89812 90.541 7.89812C92.325 7.89812 93.7204 9.37915 93.7204 11.2676C93.7204 13.1557 92.3528 14.5743 90.541 14.5743ZM116.065 7.64822C115.399 6.64626 114.128 6.05616 112.613 6.05616C109.736 6.05616 107.649 8.2315 107.649 11.2303C107.649 14.2296 109.746 16.4257 112.634 16.4257C114.075 16.4257 115.395 15.7983 116.065 14.8058V16.2102H118.019V0.895935H116.065V7.64848V7.64822ZM112.791 14.574C111.018 14.574 109.632 13.093 109.632 11.2048C109.632 9.31641 110.981 7.89786 112.791 7.89786C113.225 7.89503 113.655 7.9788 114.056 8.14428C114.458 8.30976 114.822 8.55362 115.128 8.86158C115.433 9.16954 115.675 9.53541 115.837 9.93777C116 10.3401 116.081 10.7709 116.075 11.2048C116.065 12.8384 114.915 14.574 112.791 14.574ZM120.49 6.2617H122.443V16.2102H120.49V6.26196V6.2617ZM134.388 6.25933H132.435V7.41643C131.741 6.55097 130.545 6.04645 129.147 6.04645H128.99C126.113 6.04645 124.026 8.22178 124.026 11.2208C124.026 14.2199 126.123 16.416 129.011 16.416H129.175C130.506 16.416 131.734 15.8792 132.442 15.0276V16.2102H134.544V6.25986H134.388V6.25933ZM129.235 14.5672C127.502 14.5207 126.157 13.0631 126.157 11.2025C126.157 9.34187 127.476 7.94196 129.235 7.90022C131.029 7.93172 132.46 9.40802 132.435 11.2025C132.435 12.8153 131.304 14.5231 129.235 14.5696V14.5669V14.5672ZM62.4176 10.1288C61.397 9.8674 60.6751 9.63377 60.6751 8.99747C60.6751 8.28216 61.397 7.78236 62.4338 7.78236C63.1857 7.79749 63.9118 8.05934 64.5002 8.5276L64.5488 8.56435L65.5972 7.11141L65.5508 7.0744C64.6268 6.35483 63.482 5.97782 62.3112 6.0076C60.5501 6.0076 58.6549 6.97701 58.6549 9.10142C58.6549 10.5824 59.8905 11.3046 60.925 11.6469C61.272 11.7626 61.6193 11.8529 61.971 11.9409C63.0518 12.2186 63.9865 12.4593 63.9865 13.3017C63.9865 13.8915 63.3917 14.5165 62.2902 14.5165C61.2466 14.4876 60.2415 14.1159 59.43 13.4589L59.3791 13.4219L58.3331 14.9168L58.3772 14.9515C59.501 15.8433 60.8998 16.317 62.3343 16.2913C64.1162 16.2913 66.0114 15.2292 66.0114 13.2599C66.0114 11.2907 64.1947 10.5848 62.4176 10.1288V10.1288ZM106.379 11.066C106.379 8.0971 104.46 6.02833 101.683 6.02833C98.8764 6.02833 96.84 8.15038 96.84 11.071C96.821 11.7706 96.9424 12.4669 97.1972 13.1187C97.452 13.7705 97.835 14.3647 98.3234 14.8659C99.1976 15.7173 100.373 16.1888 101.593 16.1779H101.686C103.405 16.148 104.527 15.8632 105.89 14.3916L105.932 14.3475L104.578 13.0586L104.537 13.1048C104.194 13.5067 103.767 13.8277 103.286 14.0446C102.804 14.2614 102.281 14.3688 101.753 14.359C100.244 14.359 99.0544 13.2529 98.7746 11.5983L106.311 11.5823H106.367V11.5267C106.375 11.4365 106.375 11.3459 106.367 11.2558C106.381 11.219 106.379 11.1681 106.379 11.0662V11.066ZM99.0731 10.0619C99.3298 8.62472 100.272 7.83328 101.732 7.83328C103.146 7.83328 104.109 8.6641 104.321 10.0619H99.0731ZM57.2526 11.0662C57.2526 8.09736 55.3201 6.02833 52.5617 6.02833C49.7548 6.02833 47.7183 8.15038 47.7183 11.071C47.6997 11.7706 47.8213 12.4668 48.0761 13.1187C48.3308 13.7705 48.7136 14.3647 49.2017 14.8662C50.0761 15.7173 51.2512 16.1888 52.4714 16.1779H52.5617C54.2835 16.148 55.4059 15.8632 56.7688 14.3916L56.8106 14.3475L55.4568 13.0586L55.4151 13.1048C55.072 13.5078 54.6436 13.8293 54.1609 14.0463C53.6782 14.2632 53.1533 14.37 52.6242 14.359C51.1133 14.359 49.926 13.2529 49.6461 11.5983L57.1807 11.5823H57.2387V11.5267C57.2447 11.4365 57.2447 11.346 57.2387 11.2558C57.2526 11.219 57.2526 11.1681 57.2526 11.0662V11.0662ZM49.9399 10.0616C50.199 8.62446 51.1408 7.83302 52.6011 7.83302C54.0149 7.83302 54.9778 8.66383 55.1907 10.0616H49.9399ZM72.4099 14.1435C72.1414 14.2154 71.8641 14.249 71.5862 14.2433C71.3634 14.2535 71.1409 14.2177 70.9327 14.138C70.7244 14.0583 70.5348 13.9365 70.3758 13.7802C70.1629 13.5303 70.119 13.1463 70.119 12.6488V7.9606H72.8958V6.2596H70.119V3.03872H68.1634V6.2596H67.0898V7.9606H68.1634V12.5473C68.1634 13.6511 68.4089 14.4632 68.9134 15.0279C69.2425 15.3914 69.6476 15.6781 70.0999 15.8676C70.5521 16.0572 71.0405 16.145 71.5305 16.1249C72.0212 16.1295 72.51 16.0625 72.9813 15.9259L73.0394 15.9073L72.4676 14.1275L72.4099 14.1438V14.1435ZM121.467 1.49496C121.301 1.49465 121.136 1.52746 120.983 1.59146C120.83 1.65546 120.691 1.74936 120.575 1.86768C120.459 1.98599 120.367 2.12634 120.305 2.2805C120.244 2.43465 120.214 2.59953 120.217 2.76546C120.215 2.93022 120.245 3.09379 120.307 3.2465C120.369 3.3992 120.461 3.53795 120.577 3.65455C120.694 3.77107 120.833 3.863 120.985 3.92491C121.138 3.98682 121.302 4.01744 121.467 4.01496C121.633 4.01856 121.798 3.9889 121.953 3.92773C122.108 3.86656 122.248 3.77511 122.367 3.65875C122.486 3.54236 122.58 3.40336 122.645 3.24994C122.709 3.09653 122.742 2.9318 122.742 2.76546C122.742 2.59803 122.71 2.43213 122.646 2.27736C122.582 2.12259 122.488 1.98204 122.37 1.86386C122.251 1.74568 122.11 1.65222 121.955 1.58889C121.8 1.52557 121.634 1.49364 121.467 1.49496V1.49496Z" fill="#230B59"/>
</svg>
