<svg width="335" height="45" viewBox="0 0 335 45" fill="none" xmlns="http://www.w3.org/2000/svg">
<path d="M24.9892 5.20568C24.9892 1.61574 21.5486 0.718262 18.8324 0.718262V1.25675C20.4622 1.25675 21.7298 1.79524 21.7298 3.05172C21.7298 3.76971 21.1865 4.84669 19.5567 4.84669C18.2892 4.84669 15.573 4.1287 13.5811 3.41072C11.227 2.51323 9.05408 1.79524 7.24324 1.79524C3.62162 1.79524 1.08649 4.48769 1.08649 7.53914C1.08649 10.2316 3.07838 11.1291 3.8027 11.4881L3.98378 11.1291C3.62162 10.7701 3.07838 10.411 3.07838 9.33407C3.07838 8.61609 3.8027 7.35964 5.61351 7.35964C7.24324 7.35964 9.41624 8.07764 12.3135 8.97508C14.8486 9.69307 17.5649 10.2316 19.0135 10.411V15.9755L16.2973 18.3089V18.4885L19.0135 20.8219V28.5402C17.5649 29.4377 15.9351 29.6172 14.4865 29.6172C11.7702 29.6172 9.41624 28.8992 7.42432 26.7453L14.8486 23.1554V10.7701L5.79459 14.719C6.51892 12.3855 8.5108 10.7701 10.5027 9.69307L10.3216 9.15462C4.88919 10.5906 0 15.6165 0 21.7194C0 28.8992 5.97567 34.2842 12.6757 34.2842C19.9189 34.2842 24.627 28.5402 24.627 22.6168H24.2649C23.1784 24.9503 21.5486 27.1043 19.5567 28.1812V20.8219L22.4541 18.4885V18.3089L19.5567 15.9755V10.411C22.273 10.411 24.9892 8.61609 24.9892 5.20568ZM9.23512 24.9503L7.06216 26.0273C5.79459 24.4119 5.07027 22.2578 5.07027 19.2065C5.07027 17.9499 5.07027 16.514 5.43243 15.437L9.23512 13.8215V24.9503ZM28.4298 29.0788L26.0757 30.8737L26.4378 31.2327L27.5243 30.3352L31.5081 33.9252L36.9406 30.3352L36.7594 29.9762L35.3108 30.8737L33.5 29.0788V16.873L34.9486 15.796L38.027 18.3089V29.2582C38.027 36.0791 36.5784 37.1561 33.5 38.2331V38.7716C38.5702 38.9511 43.2784 37.3356 43.2784 28.5402V16.6934L44.9081 15.437L44.5459 15.078L43.0973 16.155L38.5702 12.3855L33.5 16.155V1.43625H33.1378L26.8 5.74417V6.10317C27.5243 6.46216 28.6108 6.82115 28.6108 8.79563L28.4298 29.0788ZM61.5676 27.1043L57.0406 30.5147L52.5135 26.9248V24.7709L61.0243 19.0269V18.8475L56.6784 12.3855L47.2622 17.4115V29.2582L45.4514 30.6943L45.8135 31.0532L47.4433 29.7967L53.6 34.2842L61.7486 27.8222L61.5676 27.1043ZM52.5135 24.0529V15.2575L52.8757 15.078L56.8594 21.3604L52.5135 24.0529ZM96.1544 3.59021C96.1544 3.05172 95.9728 2.51323 95.792 1.97474H95.4296C94.8864 3.41072 94.1624 4.1287 92.3512 4.1287C90.7216 4.1287 89.6352 3.23122 88.9112 2.51323L83.6592 8.43663L84.0216 8.79563L85.8328 7.18014C86.9192 8.07764 87.824 8.79563 90.3592 8.97508V23.8733L79.676 5.74417C78.7704 4.30819 77.5027 2.33373 74.9676 2.33373C72.0702 2.33373 69.5351 4.84669 69.8973 8.79563H70.4406C70.6216 7.71864 71.1649 6.46216 72.4324 6.46216C73.3378 6.46216 74.2432 7.35964 74.7865 8.2571V14.1805C71.527 14.1805 69.3541 15.6165 69.3541 18.3089C69.3541 19.7449 70.0784 21.8989 72.2514 22.4374V22.0784C71.8892 21.7194 71.7081 21.3604 71.7081 20.8219C71.7081 19.9244 72.4324 19.2065 73.7 19.2065H74.6054V26.7453C70.8027 26.7453 67.7243 28.8992 67.7243 32.4892C67.7243 35.8996 70.6216 37.5151 73.881 37.3356V36.9766C71.8892 36.7971 70.9838 35.8996 70.9838 34.6432C70.9838 33.0277 72.0702 32.3097 73.5189 32.3097C74.9676 32.3097 76.2351 33.2072 77.1406 34.2842L82.392 28.5402L82.0296 28.1812L80.7624 29.6172C78.7704 27.8222 77.6838 27.2838 75.3298 26.9248V8.97508L89.816 34.1046H90.9024V8.97508C93.6192 8.79563 96.1544 6.64165 96.1544 3.59021ZM109.373 27.1043L104.846 30.5147L100.319 26.9248V24.7709L108.83 19.0269V18.8475L104.484 12.3855L95.0672 17.4115V29.2582L93.2568 30.6943L93.6192 31.0532L95.2488 29.7967L101.406 34.2842L109.554 27.8222L109.373 27.1043ZM100.319 24.0529V15.2575L100.681 15.078L104.665 21.3604L100.319 24.0529ZM138.889 14.36L137.622 15.2575L134.181 12.3855L130.198 15.9755L131.827 17.591V31.0532L127.481 28.3608V17.232L128.93 16.3344L124.765 12.3855L120.781 15.9755L122.411 17.591V30.5147L121.867 30.8737L118.065 28.1812V17.4115C118.065 14.8985 116.798 14.1805 115.349 13.2831C114.081 12.3855 113.357 11.8471 113.357 10.5906C113.357 9.51361 114.443 8.97508 114.986 8.61609V8.2571C113.538 8.2571 109.735 9.69307 109.735 13.1035C109.735 14.8985 110.641 15.6165 111.546 16.514C112.451 17.4115 113.357 18.1295 113.357 19.7449V30.1557L111.365 31.5917L111.727 31.9507L113.538 30.5147L117.702 34.1046L122.23 31.0532L127.3 34.1046L136.898 28.5402V16.514L139.251 14.719L138.889 14.36ZM172.57 4.48769L170.759 6.10317L166.776 2.51323L160.8 6.82115V2.87222H160.257L160.438 31.9507C159.894 31.9507 158.265 31.5917 156.998 31.2327L156.635 7.00065C156.635 5.20568 155.367 2.69273 152.108 2.69273C148.849 2.69273 146.676 5.20568 146.676 7.71864H147.219C147.4 6.64165 147.943 5.74417 149.03 5.74417C150.116 5.74417 151.022 6.46216 151.022 8.79563V15.796C147.762 15.9755 145.77 17.7705 145.77 20.1039C145.77 21.5399 146.494 23.6939 148.667 23.6939V23.3348C147.943 22.9758 147.762 22.4374 147.762 22.0784C147.762 21.0014 148.667 20.6424 150.116 20.6424H150.841V31.7712C148.124 32.6687 147.038 34.6432 147.038 36.7971C147.038 39.8486 149.392 42.0025 153.014 42.0025C155.549 42.0025 157.722 41.6435 159.894 41.105C161.706 40.746 164.059 40.2076 165.146 40.2076C166.594 40.2076 167.138 40.9255 167.138 41.823C167.138 43.0795 166.594 43.6179 165.87 43.7975V44.1565C168.767 43.618 170.578 41.823 170.578 39.1306C170.578 36.4381 167.862 34.8226 164.965 34.8226C163.516 34.8226 160.438 35.3611 158.265 35.7201C155.73 36.2586 153.194 36.6176 152.47 36.6176C151.202 36.6176 149.754 36.0791 149.754 34.2842C149.754 32.8482 151.022 31.5917 154.1 31.5917C155.73 31.5917 157.722 31.7712 159.714 32.3097C161.886 32.8482 163.878 33.3867 165.689 33.3867C168.406 33.3867 170.759 32.4892 170.759 28.7198V6.64165L172.933 4.84669L172.57 4.48769ZM165.146 15.437C164.602 15.9755 163.878 16.514 162.973 16.514C162.067 16.514 161.162 15.9755 160.8 15.437V7.53914L162.611 6.28266L165.146 8.61609V15.437ZM165.146 20.8219C164.784 20.4629 163.878 19.9244 162.973 19.9244C162.067 19.9244 161.162 20.4629 160.8 20.8219V16.155C161.162 16.514 162.067 17.0525 162.973 17.0525C163.878 17.0525 164.784 16.514 165.146 16.155V20.8219ZM165.146 29.2582C165.146 30.6942 164.241 32.1302 162.249 32.1302H160.8V21.5399C161.162 21.1809 162.067 20.6424 162.973 20.6424C163.878 20.6424 164.602 21.1809 165.146 21.5399V29.2582ZM189.954 16.514L184.159 12.3855L175.286 17.4115V29.0788L173.476 30.5147L173.657 30.8737L175.106 29.7967L180.9 34.1046L189.954 28.7198V16.514ZM180.176 27.8222V14.8985L184.702 18.1295V30.8737L180.176 27.8222ZM207.157 12.7445H206.794C206.251 13.1035 205.708 13.4625 205.165 13.4625C204.441 13.4625 203.535 13.1035 203.173 12.5651H202.811L199.733 15.9755L196.654 12.5651L191.222 16.155L191.402 16.514L192.851 15.6165L194.662 17.591V28.8992L192.308 30.6943L192.67 31.0532L193.757 30.1557L198.102 33.7456L203.716 29.9762L203.535 29.6172L201.906 30.5147L199.733 28.7198V16.155C200.638 17.0525 201.724 17.9499 202.992 17.9499C205.527 18.1295 206.976 15.6165 207.157 12.7445ZM228.886 29.9762L222.73 34.1046L214.4 21.5399L220.376 12.3855H220.738C221.462 13.1035 222.549 13.8215 223.816 13.8215C225.084 13.8215 225.989 13.1035 226.533 12.3855H226.894C226.714 15.9755 224.178 18.1295 222.367 18.1295C220.557 18.1295 219.651 17.232 218.565 16.6934L218.022 17.591L227.076 30.8737L228.886 29.7967V29.9762ZM208.967 29.0788L206.614 30.8737L206.976 31.2327L208.062 30.3352L212.046 33.9252L217.478 30.3352L217.116 29.9762L215.667 30.8737L213.857 29.0788V1.43625H213.676L207.157 5.74417V6.10317C207.881 6.46216 208.967 6.64165 208.967 8.79563V29.0788ZM258.946 5.20568C258.946 1.61574 255.506 0.718262 252.789 0.718262V1.25675C254.419 1.25675 255.686 1.79524 255.686 3.05172C255.686 3.76971 255.143 4.84669 253.514 4.84669C252.246 4.84669 249.53 4.1287 247.538 3.41072C245.184 2.69273 243.011 1.97474 241.2 1.97474C237.578 1.97474 235.043 4.66719 235.043 7.71864C235.043 10.411 237.035 11.3086 237.759 11.6676L237.941 11.3086C237.398 10.9496 236.854 10.5906 236.854 9.51361C236.854 8.79563 237.578 7.53914 239.389 7.53914C241.019 7.53914 243.192 8.2571 246.089 9.15462C248.624 9.8726 251.341 10.411 252.789 10.5906V16.155L250.073 18.4885V18.6679L252.789 21.0014V28.7198C251.341 29.6172 249.711 29.7967 248.262 29.7967C245.546 29.7967 243.192 29.0788 241.2 26.9248L248.624 23.3348V10.7701L239.57 14.719C240.476 12.3855 242.467 10.7701 244.278 9.51361L244.098 9.15462C238.665 10.5906 233.776 15.437 233.776 21.5399C233.776 28.7198 239.751 34.1046 246.451 34.1046C253.694 34.1046 258.402 28.3608 258.402 22.4374H258.041C256.954 24.7709 255.324 26.9248 253.333 28.0018V20.6424L256.23 18.3089V18.1295L253.514 15.796V10.411C256.23 10.411 258.946 8.61609 258.946 5.20568ZM243.192 24.9503L241.019 26.0273C239.751 24.4119 239.027 22.2578 239.027 19.2065C239.027 17.9499 239.208 16.514 239.57 15.437L243.373 13.8215L243.192 24.9503ZM265.284 3.41072H265.102L261.481 6.46216V6.64165L264.559 10.0521H264.922L268.543 7.00065V6.82115L265.284 3.41072ZM270.716 29.9762L269.267 30.8737L267.457 29.0788V16.6934L269.267 15.437L268.906 15.078L267.638 16.155L264.378 12.3855L259.127 15.9755L259.489 16.514L260.757 15.6165L262.386 17.591V29.2582L260.033 31.0532L260.214 31.4122L261.481 30.5147L265.465 34.1046L270.898 30.5147L270.716 29.9762ZM300.957 29.7967L299.689 30.6943L297.698 28.8992V16.6934L299.508 15.2575L299.146 14.8985L297.698 16.155L293.533 12.3855L288.1 16.155L283.935 12.3855L278.865 16.155L275.606 12.3855L270.354 15.9755L270.535 16.514L271.802 15.6165L273.614 17.591V29.2582L272.165 30.6943L276.33 34.1046L280.314 30.5147L278.684 28.8992V16.6934L280.314 15.6165L283.03 18.1295V28.8992L281.581 30.3352L285.746 33.7456L289.73 30.1557L288.1 28.5402V16.6934L289.549 15.796L292.446 18.3089V29.0788L291.178 30.3352L295.343 34.1046L300.957 30.3352V29.7967ZM316.711 27.1043L312.184 30.5147L307.657 26.9248V24.7709L316.167 19.0269V18.8475L311.822 12.3855L302.406 17.4115V29.6172L308.743 34.1046L316.892 27.6428L316.711 27.1043ZM307.657 24.0529V15.2575L308.019 15.078L312.002 21.3604L307.657 24.0529ZM333.189 22.4374L329.749 19.7449C332.102 17.7705 333.008 15.078 333.008 13.2831V12.2061H332.646C332.284 13.1035 331.559 14.001 330.111 14.001C328.662 14.001 327.757 13.2831 326.851 12.2061L318.702 16.6934V23.1554L321.781 25.4888C318.702 28.1812 318.159 29.9762 318.159 31.4122C318.159 33.2072 319.065 34.4636 320.514 35.0022L320.694 34.6432C320.333 34.2842 319.97 34.1046 319.97 33.2072C319.97 32.6687 320.694 31.7712 322.143 31.7712C323.954 31.7712 325.041 33.0277 325.584 33.5662L333.37 28.8992V22.4374H333.189ZM331.198 17.0525C329.93 19.2065 327.214 21.3604 325.584 22.4374L323.592 20.8219V14.5395C324.316 16.3344 326.308 17.7705 328.3 17.7705C329.567 17.7705 330.292 17.591 331.198 17.0525ZM328.119 31.4122C327.214 29.4377 325.041 28.0018 322.867 28.0018C322.324 28.0018 320.876 28.0018 319.427 28.8992C320.333 27.4633 322.686 24.9503 325.765 23.1554L327.938 24.9503L328.119 31.4122Z" fill="#230B59"/>
</svg>
