<svg width="21" height="21" viewBox="0 0 21 21" fill="none" xmlns="http://www.w3.org/2000/svg">
<g clip-path="url(#clip0_10423_54)">
<path d="M10.4919 0.247009H10.4909C4.83163 0.247009 0.243896 4.83475 0.243896 10.494V10.495C0.243896 16.1543 4.83163 20.742 10.4909 20.742H10.4919C16.1512 20.742 20.7389 16.1543 20.7389 10.495V10.494C20.7389 4.83475 16.1512 0.247009 10.4919 0.247009Z" fill="#371B1B"/>
<mask id="mask0_10423_54" style="mask-type:alpha" maskUnits="userSpaceOnUse" x="0" y="0" width="21" height="21">
<path d="M16.2989 0.247009H4.6839C2.23175 0.247009 0.243896 2.23486 0.243896 4.68701V16.302C0.243896 18.7542 2.23175 20.742 4.6839 20.742H16.2989C18.751 20.742 20.7389 18.7542 20.7389 16.302V4.68701C20.7389 2.23486 18.751 0.247009 16.2989 0.247009Z" fill="white"/>
</mask>
<g mask="url(#mask0_10423_54)">
<path d="M16.3019 0.247009H4.6809C2.23041 0.247009 0.243896 2.23352 0.243896 4.68401V16.305C0.243896 18.7555 2.23041 20.742 4.6809 20.742H16.3019C18.7524 20.742 20.7389 18.7555 20.7389 16.305V4.68401C20.7389 2.23352 18.7524 0.247009 16.3019 0.247009Z" fill="#4840BB"/>
<path fill-rule="evenodd" clip-rule="evenodd" d="M16.1321 15.567V15.535C16.1184 15.5151 16.1015 15.4975 16.0821 15.483C13.6211 13.53 13.9311 9.44401 14.6301 5.65201C14.6581 5.49901 14.6771 5.39701 14.5521 5.38201C13.7571 5.29201 11.1071 5.71301 10.3461 5.91501C10.1481 5.96801 10.1311 6.02401 10.1271 6.14501C9.91911 13.737 14.7151 15.326 16.0171 15.573C16.0471 15.579 16.1131 15.586 16.1321 15.567V15.567ZM9.20811 8.27701C8.23211 8.46201 7.32811 8.82301 6.54611 9.14701C6.47711 9.16701 6.36711 9.28101 6.39611 9.42201C6.70411 10.956 8.20811 15.28 13.9591 15.617C14.0921 15.623 14.2251 15.599 14.1211 15.537C13.3451 14.957 10.5871 14.36 9.46011 8.49501C9.44811 8.43501 9.45011 8.20701 9.20811 8.27701ZM6.44811 11.877C6.10611 12.078 5.22211 12.642 4.90511 12.933C4.84311 12.99 4.85511 13.031 4.88211 13.129C5.13811 14.037 6.64811 15.629 10.3981 15.505C10.5751 15.499 10.5761 15.446 10.4831 15.38C10.4231 15.336 9.23811 14.966 8.15411 13.996C7.61211 13.51 7.06111 12.773 6.69111 12.072C6.59911 11.88 6.55211 11.816 6.44811 11.877V11.877Z" fill="white"/>
</g>
<mask id="mask1_10423_54" style="mask-type:alpha" maskUnits="userSpaceOnUse" x="4" y="5" width="13" height="11">
<path fill-rule="evenodd" clip-rule="evenodd" d="M16.1321 15.567V15.535C16.1184 15.5151 16.1015 15.4975 16.0821 15.483C13.6211 13.53 13.9311 9.44401 14.6301 5.65201C14.6581 5.49901 14.6771 5.39701 14.5521 5.38201C13.7571 5.29201 11.1071 5.71301 10.3461 5.91501C10.1481 5.96801 10.1311 6.02401 10.1271 6.14501C9.91911 13.737 14.7151 15.326 16.0171 15.573C16.0471 15.579 16.1131 15.586 16.1321 15.567V15.567ZM9.20811 8.27701C8.23211 8.46201 7.32811 8.82301 6.54611 9.14701C6.47711 9.16701 6.36711 9.28101 6.39611 9.42201C6.70411 10.956 8.20811 15.28 13.9591 15.617C14.0921 15.623 14.2251 15.599 14.1211 15.537C13.3451 14.957 10.5871 14.36 9.46011 8.49501C9.44811 8.43501 9.45011 8.20701 9.20811 8.27701ZM6.44811 11.877C6.10611 12.078 5.22211 12.642 4.90511 12.933C4.84311 12.99 4.85511 13.031 4.88211 13.129C5.13811 14.037 6.64811 15.629 10.3981 15.505C10.5751 15.499 10.5761 15.446 10.4831 15.38C10.4231 15.336 9.23811 14.966 8.15411 13.996C7.61211 13.51 7.06111 12.773 6.69111 12.072C6.59911 11.88 6.55211 11.816 6.44811 11.877V11.877Z" fill="white"/>
</mask>
<g mask="url(#mask1_10423_54)">
</g>
</g>
<defs>
<clipPath id="clip0_10423_54">
<rect width="21" height="21" fill="white"/>
</clipPath>
</defs>
</svg>
