<svg width="490" height="578" viewBox="0 0 490 578" fill="none" xmlns="http://www.w3.org/2000/svg">
<g clip-path="url(#clip0_10423_521)">
<path d="M33.7798 103.679C32.0587 93.9014 40.1352 84.3084 51.8198 82.2516L356.445 28.6305C368.138 26.5723 379.011 32.8425 380.721 42.6303L455.236 469.385C456.942 479.157 448.866 488.737 437.192 490.792L133.153 544.31C121.468 546.367 110.601 540.108 108.88 530.331L33.7798 103.679Z" fill="url(#paint0_linear_10423_521)"/>
<g filter="url(#filter0_d_10423_521)">
<path fill-rule="evenodd" clip-rule="evenodd" d="M33.2229 104.233C31.5018 94.4557 39.5783 84.8627 51.2629 82.8059L355.913 29.1806C367.597 27.1238 378.464 33.3824 380.185 43.16L455.286 469.812C457.007 479.589 448.93 489.182 437.246 491.239L132.596 544.865C120.911 546.921 110.044 540.663 108.323 530.885L33.2229 104.233Z" fill="url(#paint1_linear_10423_521)"/>
</g>
<g opacity="0.8">
<mask id="mask0_10423_521" style="mask-type:alpha" maskUnits="userSpaceOnUse" x="32" y="28" width="424" height="518">
<g opacity="0.8">
<path opacity="0.8" fill-rule="evenodd" clip-rule="evenodd" d="M33.2229 104.233C31.5018 94.4557 39.5783 84.8627 51.2629 82.8059L355.913 29.1806C367.597 27.1238 378.464 33.3824 380.185 43.16L455.286 469.812C457.007 479.589 448.93 489.182 437.246 491.239L132.596 544.865C120.911 546.921 110.044 540.663 108.323 530.885L33.2229 104.233Z" fill="url(#paint2_linear_10423_521)"/>
</g>
</mask>
<g mask="url(#mask0_10423_521)">
<g opacity="0.8">
<path opacity="0.8" d="M230.453 38.488C198.137 44.1764 163.846 45.099 122.699 39.4588C112.153 38.0077 101.621 36.5063 91.1018 34.9547C45.7288 28.3672 20.7343 24.7342 -40.3177 27.2071L-40.2551 23.1697C21.3233 20.6643 46.491 24.3272 92.1858 30.9584C101.636 32.3557 112.023 33.8492 123.737 35.4706C223.012 49.058 282.16 23.689 371.704 -14.5782C379.567 -17.9268 387.436 -21.2648 395.31 -24.5923L397.239 -21.046L373.546 -10.9774C320.122 11.9146 277.345 30.234 230.453 38.488Z" fill="url(#paint3_linear_10423_521)"/>
<path opacity="0.8" d="M232.634 50.8804C200.318 56.5688 166.028 57.4896 124.883 51.8644C113.123 50.2494 102.757 48.7321 93.2851 47.3577C47.9078 40.7463 22.9129 37.1106 -38.1361 39.6003L-38.0737 35.5621C23.5052 33.0593 48.6733 36.7248 94.3725 43.3808C103.82 44.7587 114.207 46.2531 125.924 47.8957C225.201 61.4919 284.348 36.1185 373.867 -2.15165L397.503 -12.1318L399.432 -8.5846C391.555 -5.27017 383.696 -1.92022 375.857 1.46511C322.306 24.3229 279.526 42.6264 232.634 50.8804Z" fill="url(#paint4_linear_10423_521)"/>
<path opacity="0.8" d="M234.985 64.1556C202.668 69.8442 168.36 70.676 127.182 64.8741C115.411 63.208 105.036 61.6448 95.5573 60.2288C50.146 53.4363 25.1283 49.6714 -35.9449 52.0486L-35.8923 47.9545C25.7135 45.5858 50.8985 49.3413 96.6366 56.1995C106.091 57.6198 116.491 59.1787 128.214 60.8532C227.597 74.8914 286.685 49.2958 376.158 10.7344C383.778 7.3516 391.629 4.04951 399.741 0.579277L401.679 4.18051L378.027 14.3479C324.64 37.4688 281.88 55.901 234.985 64.1556Z" fill="url(#paint5_linear_10423_521)"/>
<path opacity="0.8" d="M237.322 77.433C205.005 83.1216 170.7 83.9747 129.52 78.1568C118.965 76.6605 108.423 75.1133 97.896 73.5151C52.482 66.7076 27.4684 62.9656 -33.6081 65.3243L-33.5552 61.232C28.0467 58.8411 53.2349 62.6144 98.972 69.4672C108.426 70.8858 118.822 72.4252 130.548 74.1174C229.904 88.1304 289.019 62.5556 378.513 23.9776C386.11 20.599 393.961 17.2978 402.077 13.8479L404.011 17.427C396.148 20.7912 388.295 24.1742 380.452 27.576C326.974 50.7294 284.217 69.1785 237.322 77.433Z" fill="url(#paint6_linear_10423_521)"/>
<path opacity="0.8" d="M239.504 89.8255C207.186 95.5141 172.881 96.3636 131.703 90.5581C119.932 88.8912 109.556 87.3263 100.078 85.9102C54.6619 79.093 29.6472 75.3448 -31.4265 77.7194L-31.374 73.6245C30.2288 71.2389 55.4179 75.0175 101.157 81.8791C110.611 83.2995 121.007 84.8406 132.734 86.5355C232.096 100.588 291.207 74.9843 380.678 36.4158C388.298 33.0313 396.149 29.7292 404.261 26.2581L406.199 29.8593L382.547 40.0293C329.154 63.1157 286.398 81.5709 239.504 89.8255Z" fill="url(#paint7_linear_10423_521)"/>
<path opacity="0.8" d="M241.685 102.218C209.368 107.906 175.063 108.758 133.882 102.936C123.326 101.439 112.784 99.8904 102.257 98.291C56.8457 91.4986 31.8316 87.754 -29.2452 90.1108L-29.1926 86.0168C32.4097 83.6286 57.5983 87.4036 103.336 94.2617C113.854 95.8421 124.38 97.3933 134.913 98.9154C234.294 112.934 293.385 87.3581 382.854 48.7771C390.474 45.3935 398.326 42.0923 406.437 38.6212L408.375 42.2224C400.264 45.6926 392.433 49.1133 384.793 52.3784C331.336 75.5116 288.58 93.9633 241.685 102.218V102.218Z" fill="url(#paint8_linear_10423_521)"/>
<path opacity="0.8" d="M243.853 114.613C211.536 120.301 177.246 121.222 136.101 115.597C124.341 113.982 113.975 112.464 104.503 111.09C59.1259 104.478 34.1311 100.843 -26.9179 103.333L-26.8555 99.2944C34.7235 96.7916 59.8916 100.457 105.591 107.113C115.038 108.491 125.425 109.985 137.142 111.628C236.422 125.245 295.566 99.8508 385.108 61.5765L408.711 51.542L410.64 55.0884C402.525 58.531 394.689 61.9243 387.065 65.139C333.524 88.0552 290.744 106.359 243.853 114.613Z" fill="url(#paint9_linear_10423_521)"/>
<path opacity="0.8" d="M246.203 127.888C213.886 133.576 179.594 134.499 138.445 128.859C127.898 127.408 117.365 125.907 106.845 124.356C61.4698 117.769 36.4753 114.136 -24.5809 116.609L-24.5183 112.572C37.0633 110.066 62.2321 113.729 107.93 120.359C117.377 121.737 127.768 123.249 139.482 124.871C238.762 138.458 297.914 113.088 387.439 74.8241C395.064 71.4688 402.92 68.1933 411.037 64.7513L412.965 68.2977L389.305 78.4217C335.878 101.312 293.098 119.633 246.203 127.888Z" fill="url(#paint10_linear_10423_521)"/>
<path opacity="0.8" d="M248.385 140.28C216.068 145.969 181.775 146.89 140.628 141.265C128.867 139.65 118.5 138.133 109.028 136.759C63.6487 130.147 38.6539 126.512 -22.3993 129.003L-22.3369 124.964C39.223 122.465 64.4144 126.126 110.093 132.786C120.611 134.318 131.136 135.822 141.669 137.296C240.951 150.892 300.102 125.518 389.626 87.2467L413.227 77.1925L415.152 80.7185C407.284 84.0564 399.426 87.4129 391.579 90.7878C338.062 113.721 295.28 132.025 248.385 140.279L248.385 140.28Z" fill="url(#paint11_linear_10423_521)"/>
<path opacity="0.8" d="M250.566 152.673C218.249 158.361 183.953 159.265 142.807 153.643C131.046 152.03 120.679 150.513 111.208 149.14C65.8326 142.553 40.8347 138.901 -20.2181 141.394L-20.1555 137.357C41.4227 134.831 66.5914 138.494 112.293 145.145C121.74 146.522 132.131 148.035 143.845 149.656C243.129 163.262 302.277 137.873 391.829 99.6243C399.436 96.3524 407.294 92.9962 415.403 89.5556L417.331 93.102L393.668 103.206C340.241 126.097 297.461 144.418 250.566 152.673V152.673Z" fill="url(#paint12_linear_10423_521)"/>
<path opacity="0.8" d="M252.747 165.065C220.43 170.754 186.138 171.678 144.989 166.042C134.443 164.592 123.91 163.092 113.39 161.542C68.0125 154.939 43.0187 151.309 -18.0372 153.785L-17.9744 149.749C43.607 147.241 68.7751 150.9 114.476 157.547C123.923 158.923 134.31 160.415 146.027 162.056C245.306 175.632 304.458 150.267 393.985 112.009C401.61 108.655 409.466 105.38 417.586 101.959L419.511 105.484C411.643 108.82 403.785 112.176 395.937 115.55C342.415 138.454 299.642 156.81 252.747 165.065V165.065Z" fill="url(#paint13_linear_10423_521)"/>
<path opacity="0.8" d="M255.085 178.342C222.767 184.031 188.462 184.881 147.284 179.075C135.513 177.408 125.138 175.843 115.659 174.427C70.243 167.61 45.2283 163.862 -15.8454 166.236L-15.793 162.141C45.7876 159.76 70.999 163.534 116.714 170.4C127.24 171.98 137.774 173.531 148.315 175.052C247.678 189.105 306.788 163.501 396.26 124.933C403.879 121.548 411.73 118.246 419.842 114.775L421.78 118.377L398.128 128.546C344.735 151.633 301.98 170.088 255.085 178.342V178.342Z" fill="url(#paint14_linear_10423_521)"/>
<path opacity="0.8" d="M257.266 190.735C224.949 196.423 190.657 197.348 149.508 191.712C138.962 190.262 128.428 188.762 117.909 187.212C72.5311 180.609 47.5372 176.979 -13.5187 179.455L-13.4558 175.419C48.1254 172.91 73.2936 176.57 118.994 183.217C128.441 184.593 138.829 186.085 150.546 187.725C249.824 201.302 308.977 175.937 398.526 137.675C406.128 134.325 413.984 131.05 422.101 127.609L424.029 131.154C416.161 134.49 408.304 137.846 400.456 141.22C346.941 164.163 304.161 182.48 257.266 190.735Z" fill="url(#paint15_linear_10423_521)"/>
<path opacity="0.8" d="M259.447 203.127C227.13 208.816 192.837 209.737 151.691 204.112C139.929 202.497 129.562 200.979 120.091 199.606C74.7112 192.994 49.7164 189.359 -11.3368 191.85L-11.2744 187.811C50.3077 185.308 75.4769 188.973 121.179 195.629C131.689 197.163 142.206 198.667 152.732 200.143C252.014 213.739 311.164 188.365 400.688 150.094L424.289 140.04L426.218 143.586C418.101 147.029 410.266 150.421 402.642 153.637C349.131 176.608 306.342 194.873 259.447 203.127V203.127Z" fill="url(#paint16_linear_10423_521)"/>
<path opacity="0.8" d="M261.785 216.405C229.467 222.093 195.162 222.945 153.981 217.123C142.211 215.457 131.835 213.894 122.357 212.478C76.9453 205.685 51.931 201.94 -9.14561 204.298L-9.09303 200.204C52.4871 197.819 77.698 201.591 123.409 208.433C132.888 209.848 143.262 211.413 155.009 213.082C254.37 227.125 313.481 201.525 402.954 162.964C410.574 159.58 418.425 156.279 426.537 152.809L428.475 156.409L404.826 166.597C351.432 189.678 308.679 208.15 261.785 216.405V216.405Z" fill="url(#paint17_linear_10423_521)"/>
<path opacity="0.8" d="M263.952 228.8C231.636 234.488 197.333 235.337 156.157 229.531C144.387 227.864 134.013 226.299 124.534 224.883C79.1201 218.065 54.1054 214.317 -6.96406 216.691L-6.91163 212.596C54.688 210.211 79.8761 213.99 125.612 220.852C135.066 222.272 145.461 223.814 157.188 225.509C256.542 239.542 315.652 213.959 405.138 175.367L428.727 165.25L430.662 168.832C422.799 172.197 414.946 175.581 407.104 178.984C353.598 202.091 310.867 220.542 263.952 228.8Z" fill="url(#paint18_linear_10423_521)"/>
<path opacity="0.8" d="M266.303 242.075C233.986 247.763 199.677 248.594 158.5 242.793C146.729 241.127 136.354 239.564 126.875 238.148C81.4638 231.355 56.4461 227.59 -4.62706 229.968L-4.57447 225.874C57.0279 223.485 82.2166 227.261 127.954 234.119C137.409 235.538 147.808 237.098 159.531 238.771C258.892 252.814 318.003 227.215 407.476 188.653C415.096 185.271 422.947 181.969 431.059 178.498L432.997 182.099L409.344 192.267C355.951 215.348 313.198 233.82 266.303 242.075V242.075Z" fill="url(#paint19_linear_10423_521)"/>
<path opacity="0.8" d="M268.484 254.467C236.167 260.156 201.875 261.08 160.726 255.444C150.18 253.994 139.647 252.494 129.127 250.944C83.7493 244.341 58.7555 240.711 -2.30043 243.187L-2.23756 239.151C59.3436 236.643 84.5119 240.303 130.213 246.949C139.659 248.325 150.047 249.817 161.764 251.458C261.043 265.034 320.195 239.669 409.721 201.411C417.364 198.155 425.202 194.782 433.323 191.361L435.247 194.886C427.38 198.223 419.522 201.578 411.674 204.952C358.163 227.915 315.379 246.212 268.484 254.467V254.467Z" fill="url(#paint20_linear_10423_521)"/>
<path opacity="0.8" d="M270.666 266.859C238.348 272.548 204.056 273.469 162.909 267.844C151.148 266.23 140.78 264.712 131.309 263.338C85.9295 256.726 60.9347 253.091 -0.118563 255.582L-0.0561644 251.544C61.526 249.04 86.6952 252.706 132.398 259.361C142.907 260.895 153.425 262.4 163.95 263.876C263.259 277.486 322.383 252.097 411.91 213.845C419.535 210.489 427.391 207.214 435.507 203.772L437.436 207.318L413.769 217.405C360.343 240.301 317.561 258.605 270.666 266.859V266.859Z" fill="url(#paint21_linear_10423_521)"/>
<path opacity="0.8" d="M272.847 279.252C240.53 284.94 206.238 285.865 165.089 280.229C154.543 278.779 144.01 277.279 133.49 275.729C88.1121 269.126 63.1183 265.496 2.06237 267.972L2.12523 263.936C63.7064 261.427 88.8747 265.087 134.575 271.734C144.022 273.11 154.41 274.602 166.127 276.242C265.405 289.819 324.558 264.454 414.084 226.196C421.709 222.842 429.565 219.567 437.682 216.126L439.61 219.671C431.742 223.007 423.885 226.363 416.037 229.736C362.525 252.7 319.742 270.997 272.847 279.252V279.252Z" fill="url(#paint22_linear_10423_521)"/>
<path opacity="0.8" d="M275.17 292.532C242.854 298.22 208.551 299.069 167.375 293.264C155.605 291.596 145.231 290.031 135.752 288.615C90.3384 281.798 65.3236 278.049 4.2542 280.423L4.30663 276.328C65.9063 273.943 91.0944 277.722 136.83 284.584C146.284 286.005 156.68 287.546 168.406 289.241C267.763 303.295 326.871 277.691 416.333 239.103L439.945 228.982L441.883 232.584C433.773 236.054 425.943 239.475 418.323 242.716C364.816 265.823 322.062 284.278 275.17 292.532V292.532Z" fill="url(#paint23_linear_10423_521)"/>
<path opacity="0.8" d="M277.366 304.922C245.048 310.61 210.753 311.514 169.607 305.893C157.845 304.28 147.478 302.762 138.007 301.39C92.6318 294.802 67.6374 291.17 6.58123 293.643L6.64379 289.606C68.2254 287.1 93.3942 290.763 139.092 297.394C148.539 298.771 158.931 300.284 170.644 301.905C269.951 315.507 329.076 290.122 418.605 251.878C426.23 248.522 434.085 245.247 442.202 241.805L444.131 245.351C436.014 248.793 428.179 252.185 420.533 255.423C367.03 278.288 324.26 296.667 277.366 304.922V304.922Z" fill="url(#paint24_linear_10423_521)"/>
<path opacity="0.8" d="M279.547 317.314C247.23 323.003 212.937 323.924 171.79 318.299C160.029 316.684 149.662 315.166 140.19 313.793C94.8108 307.181 69.816 303.546 8.76278 306.036L8.82518 301.998C70.4073 299.495 95.5765 303.16 141.279 309.816C151.789 311.349 162.306 312.854 172.831 314.33C272.137 327.922 331.264 302.552 420.788 264.281L444.389 254.226L446.314 257.753C438.197 261.196 430.362 264.588 422.717 267.828C369.224 290.756 326.442 309.06 279.547 317.314V317.314Z" fill="url(#paint25_linear_10423_521)"/>
<path opacity="0.8" d="M281.728 329.706C249.411 335.395 215.115 336.299 173.969 330.677C163.422 329.227 152.889 327.726 142.37 326.174C96.9943 319.586 72 315.954 10.9438 318.428L11.0063 314.391C72.588 311.885 97.7601 315.567 143.458 322.198C152.905 323.575 163.297 325.088 175.01 326.709C274.317 340.311 333.442 314.926 422.994 276.678C430.601 273.406 438.459 270.05 446.568 266.609L448.497 270.155L424.829 280.24C371.402 303.131 328.646 321.448 281.728 329.706V329.706Z" fill="url(#paint26_linear_10423_521)"/>
<path opacity="0.8" d="M284.065 342.984C251.748 348.673 217.443 349.526 176.263 343.708C165.708 342.212 155.166 340.665 144.639 339.066C99.2503 332.254 74.2344 328.512 13.1348 330.875L13.1877 326.783C74.7896 324.392 99.9778 328.165 145.715 335.018C156.232 336.597 166.758 338.147 177.291 339.668C276.647 353.681 335.762 328.107 425.256 289.529C432.87 286.248 440.704 282.849 448.819 279.399L450.754 282.978C442.891 286.343 435.038 289.726 427.195 293.127C373.724 316.32 330.96 334.73 284.065 342.984V342.984Z" fill="url(#paint27_linear_10423_521)"/>
<path opacity="0.8" d="M286.403 356.262C254.085 361.95 219.78 362.8 178.602 356.994C166.831 355.327 156.455 353.762 146.977 352.346C101.561 345.529 76.5461 341.781 15.4725 344.155L15.5249 340.06C77.1055 337.679 102.317 341.454 148.032 348.319C158.558 349.899 169.091 351.45 179.633 352.972C278.995 367.024 338.106 341.42 427.601 302.848C435.203 299.548 443.056 296.164 451.16 292.694L453.098 296.296C444.986 299.766 437.156 303.188 429.537 306.429C376.053 329.552 333.297 348.007 286.403 356.262V356.262Z" fill="url(#paint28_linear_10423_521)"/>
<path opacity="0.8" d="M288.584 368.654C256.267 374.343 221.962 375.194 180.78 369.372C170.225 367.875 159.683 366.326 149.156 364.727C103.745 357.935 78.7303 354.189 17.6537 356.547L17.7063 352.453C79.2864 350.069 104.497 353.841 150.209 360.683C159.687 362.098 170.061 363.662 181.809 365.331C281.189 379.35 340.28 353.775 429.75 315.194C437.387 311.909 445.221 308.508 453.333 305.038L455.271 308.638C447.159 312.108 439.329 315.529 431.688 318.794C378.232 341.927 335.479 360.399 288.584 368.654V368.654Z" fill="url(#paint29_linear_10423_521)"/>
<path opacity="0.8" d="M290.765 381.046C258.448 386.735 224.155 387.656 183.009 382.031C171.247 380.417 160.88 378.899 151.409 377.525C106.029 370.913 81.0343 367.278 19.981 369.769L20.0434 365.731C81.6033 363.231 106.795 366.893 152.474 373.552C162.991 375.084 173.517 376.588 184.05 378.063C283.358 391.673 342.482 366.284 432.006 328.013L455.607 317.959L457.535 321.505C449.419 324.948 441.584 328.34 433.935 331.56C380.442 354.488 337.66 372.792 290.765 381.046V381.046Z" fill="url(#paint30_linear_10423_521)"/>
<path opacity="0.8" d="M292.947 393.439C260.629 399.127 226.334 400.031 185.188 394.409C173.426 392.796 163.059 391.279 153.588 389.907C108.213 383.319 83.2151 379.667 22.1623 382.16L22.2248 378.123C83.7843 375.621 108.972 379.26 154.65 385.915C164.121 387.288 174.487 388.805 186.225 390.422C285.532 404.024 344.657 378.639 434.186 340.395C441.811 337.039 449.666 333.764 457.783 330.322L459.712 333.868L436.048 343.972C382.621 366.863 339.842 385.184 292.947 393.439V393.439Z" fill="url(#paint31_linear_10423_521)"/>
<path opacity="0.8" d="M295.284 406.716C262.966 412.405 228.661 413.254 187.483 407.449C176.932 405.932 166.39 404.383 155.858 402.801C110.442 395.984 85.4272 392.236 24.3536 394.61L24.406 390.515C86.0088 388.13 111.198 391.908 156.937 398.77C167.454 400.352 177.98 401.904 188.514 403.426C287.896 417.455 346.987 391.875 436.478 353.282C444.092 350.002 451.926 346.601 460.041 343.149L461.976 346.732C454.113 350.097 446.26 353.481 438.418 356.884C384.934 380.007 342.202 398.458 295.284 406.716V406.716Z" fill="url(#paint32_linear_10423_521)"/>
<path opacity="0.8" d="M297.465 419.109C265.148 424.797 230.855 425.718 189.708 420.094C179.162 418.642 168.628 417.14 158.108 415.587C112.758 408.991 87.7573 405.336 26.6808 407.831L26.7432 403.793C88.3253 401.289 113.494 404.955 159.197 411.61C168.644 412.988 179.035 414.502 190.749 416.125C290.058 429.736 349.182 404.347 438.733 366.091C446.34 362.819 454.197 359.462 462.307 356.021L464.235 359.567L440.568 369.654C387.142 392.55 344.383 410.85 297.465 419.109V419.109Z" fill="url(#paint33_linear_10423_521)"/>
<path opacity="0.8" d="M299.646 431.501C267.329 437.19 233.037 438.114 191.888 432.478C181.342 431.028 170.809 429.528 160.289 427.978C114.937 421.37 89.9409 417.741 28.8617 420.221L28.9245 416.185C90.5057 413.677 115.674 417.336 161.375 423.983C170.822 425.359 181.209 426.851 192.926 428.492C292.205 442.068 351.357 416.703 440.907 378.441C448.526 375.189 456.364 371.816 464.481 368.375L466.41 371.92C458.542 375.256 450.684 378.612 442.836 381.986C389.325 404.949 346.541 423.246 299.646 431.501V431.501Z" fill="url(#paint34_linear_10423_521)"/>
<path opacity="0.8" d="M301.828 443.893C269.511 449.582 235.218 450.503 194.071 444.878C182.31 443.263 171.943 441.745 162.471 440.372C117.092 433.76 92.0968 430.125 31.0435 432.616L31.1059 428.577C92.6658 426.078 117.857 429.739 163.536 436.399C174.054 437.931 184.579 439.435 195.112 440.91C294.421 454.52 353.545 429.131 443.072 390.879C450.697 387.523 458.553 384.248 466.669 380.805L468.598 384.352L444.917 394.36C391.491 417.257 348.723 435.639 301.828 443.893V443.893Z" fill="url(#paint35_linear_10423_521)"/>
<path opacity="0.8" d="M304.009 456.286C271.692 461.974 237.4 462.897 196.25 457.257C185.703 455.806 175.17 454.305 164.651 452.754C119.275 446.166 94.281 442.534 33.2248 445.007L33.2873 440.97C94.8468 438.468 120.038 442.127 165.713 448.762C175.184 450.135 185.55 451.651 197.288 453.269C296.591 466.852 355.72 441.486 445.245 403.222C452.887 399.964 460.726 396.591 468.842 393.15L470.771 396.696C462.654 400.137 454.819 403.529 447.173 406.768C393.683 429.711 350.904 448.031 304.009 456.286V456.286Z" fill="url(#paint36_linear_10423_521)"/>
<path opacity="0.8" d="M306.333 469.566C274.016 475.254 239.726 476.175 198.581 470.55C186.821 468.935 176.455 467.417 166.983 466.043C121.606 459.431 96.6111 455.796 35.5621 458.286L35.6245 454.247C97.1802 451.749 122.372 455.41 168.047 462.07C178.565 463.602 189.09 465.106 199.622 466.581C298.922 480.173 358.046 454.804 447.565 416.534L471.205 406.573L473.134 410.12C465.018 413.562 457.183 416.955 449.535 420.174C396.004 443.008 353.224 461.312 306.333 469.566V469.566Z" fill="url(#paint37_linear_10423_521)"/>
<path opacity="0.8" d="M308.684 482.841C276.366 488.53 242.058 489.361 200.88 483.559C190.325 482.062 179.783 480.513 169.255 478.914C123.844 472.122 98.8299 468.376 37.7533 470.734L37.8059 466.64C99.4083 464.252 124.597 468.028 170.331 474.865C179.786 476.285 190.185 477.845 201.908 479.518C301.292 493.557 360.38 467.962 449.853 429.4C457.473 426.017 465.324 422.715 473.436 419.245L475.374 422.846L451.725 433.033C398.342 456.174 355.578 474.586 308.684 482.841V482.841Z" fill="url(#paint38_linear_10423_521)"/>
<path opacity="0.8" d="M310.865 495.233C278.547 500.922 244.242 501.773 203.065 495.971C191.294 494.306 180.919 492.742 171.44 491.327C126.051 484.51 101.034 480.765 39.9345 483.126L39.987 479.032C101.589 476.644 126.778 480.42 172.516 487.277C183.033 488.857 193.559 490.408 204.093 491.93C303.473 505.949 362.565 480.374 452.057 441.789C459.671 438.508 467.505 435.108 475.62 431.657L477.555 435.238C469.692 438.603 461.839 441.987 453.997 445.389C400.516 468.527 357.783 486.975 310.865 495.233V495.233Z" fill="url(#paint39_linear_10423_521)"/>
<path opacity="0.8" d="M313.046 507.626C280.729 513.314 246.42 514.145 205.243 508.344C194.687 506.847 184.146 505.298 173.618 503.699C128.232 496.902 103.212 493.137 42.1159 495.519L42.1684 491.425C103.771 489.036 128.959 492.812 174.697 499.67C184.152 501.089 194.551 502.649 206.274 504.322C305.635 518.366 364.746 492.766 454.242 454.201C461.844 450.902 469.697 447.518 477.802 444.049L479.74 447.65L456.087 457.818C402.694 480.899 359.941 499.371 313.046 507.626V507.626Z" fill="url(#paint40_linear_10423_521)"/>
<path opacity="0.8" d="M315.383 520.903C283.066 526.592 248.761 527.443 207.58 521.622C197.024 520.124 186.483 518.576 175.955 516.976C130.544 510.184 105.53 506.439 44.453 508.796L44.5056 504.702C106.086 502.318 131.297 506.09 177.011 512.951C187.537 514.53 198.07 516.08 208.611 517.6C307.968 531.623 367.083 506.043 456.576 467.458C464.19 464.178 472.024 460.778 480.135 457.307L482.074 460.908C474.211 464.273 466.358 467.656 458.515 471.059C405.034 494.197 362.278 512.649 315.383 520.903V520.903Z" fill="url(#paint41_linear_10423_521)"/>
<path opacity="0.8" d="M317.565 533.296C285.247 538.984 250.955 539.905 209.808 534.281C198.046 532.666 187.679 531.148 178.208 529.774C132.828 523.162 107.834 519.528 46.7804 522.018L46.8428 517.98C108.403 515.48 133.594 519.142 179.273 525.801C189.791 527.334 200.316 528.837 210.849 530.312C310.158 543.923 369.282 518.533 458.809 480.282C466.434 476.925 474.29 473.65 482.406 470.208L484.335 473.754L460.668 483.841C407.242 506.737 364.459 525.041 317.565 533.296V533.296Z" fill="url(#paint42_linear_10423_521)"/>
<path opacity="0.8" d="M319.746 545.688C287.429 551.377 253.136 552.3 211.987 546.659C201.44 545.209 190.907 543.708 180.387 542.156C135.012 535.568 110.018 531.936 48.9616 534.41L49.0242 530.372C110.584 527.87 135.775 531.529 181.449 538.164C190.921 539.537 201.286 541.054 213.025 542.672C312.332 556.273 371.456 530.888 460.985 492.644C468.627 489.386 476.466 486.013 484.582 482.571L486.511 486.117C478.394 489.559 470.559 492.951 462.914 496.189C409.42 519.113 366.641 537.433 319.746 545.688V545.688Z" fill="url(#paint43_linear_10423_521)"/>
</g>
</g>
</g>
<path fill-rule="evenodd" clip-rule="evenodd" d="M185.098 174.327C165.972 165.545 163.773 140.528 164.581 116.807C164.614 115.853 164.637 115.213 163.757 115.28C158.153 115.703 140.247 121.467 135.194 123.611C133.879 124.168 133.816 124.525 133.921 125.263C140.55 171.299 176.281 176.012 184.747 174.948C184.956 174.923 185.467 174.889 185.532 174.773C185.598 174.656 185.301 174.426 185.098 174.327V174.327Z" fill="white"/>
<path fill-rule="evenodd" clip-rule="evenodd" d="M111.488 147.978C110.766 148.569 110.172 148.742 110.519 149.56C114.287 158.433 130.888 184.601 169.493 177.71C170.415 177.584 171.316 177.28 170.526 177.025C164.538 174.472 144.652 173.382 130.605 139.385C130.461 139.038 130.23 137.661 128.63 138.378C120.684 142.226 112.212 147.387 111.488 147.978V147.978Z" fill="white"/>
<path fill-rule="evenodd" clip-rule="evenodd" d="M104.474 172.974C103.812 173.86 103.655 173.952 103.952 174.51C106.688 179.674 118.969 187.26 144.811 181.949C146.033 181.697 145.982 181.378 145.271 181.089C144.808 180.901 136.203 180.111 127.667 175.579C123.395 173.312 118.791 169.535 115.483 165.758C114.643 164.716 113.973 163.961 113.318 164.454C111.159 166.082 106.11 170.786 104.474 172.974Z" fill="white"/>
<path d="M257.041 100.427L221.925 106.609C216.575 107.55 212.883 111.978 213.678 116.498L221.359 160.132C222.154 164.651 227.137 167.552 232.487 166.611L267.603 160.429C272.954 159.488 276.646 155.06 275.85 150.54L268.17 106.907C267.374 102.387 262.392 99.4855 257.041 100.427Z" fill="url(#paint44_linear_10423_521)"/>
<path d="M229.55 104.354L232.85 124.964M246.631 102.26L249.931 122.87L246.631 102.26Z" stroke="white" stroke-width="0.8" stroke-miterlimit="10"/>
<path d="M269.789 117.348L266.069 121.148L263.616 121.579L258.92 120.491L226.082 126.271L222.617 129.304L219.585 129.838L215.981 127.64" stroke="#A2A2A2" stroke-width="0.8" stroke-miterlimit="10"/>
<path d="M269.945 118.233L266.224 122.033L263.771 122.465L259.076 121.377L226.238 127.157L222.773 130.19L219.741 130.723L216.137 128.525" stroke="white" stroke-width="0.8" stroke-miterlimit="10"/>
<path d="M254.116 143.834L257.357 162.246" stroke="#A1A1A1" stroke-width="0.8" stroke-miterlimit="10"/>
<path d="M273.983 141.253L269.166 138.447L266.789 138.866L262.495 141.79M253.425 143.956L256.665 162.367L253.425 143.956ZM237.029 146.842L240.269 165.254L237.029 146.842ZM220.436 150.471L222.596 147.557L226.299 146.906L230.502 147.565L253.635 143.494L220.436 150.471Z" stroke="white" stroke-width="0.8" stroke-miterlimit="10"/>
<path d="M230.338 105.147L233.797 124.798M246.797 102.25L250.256 121.901L246.797 102.25Z" stroke="#A2A2A2" stroke-width="0.8" stroke-miterlimit="10"/>
<path d="M237.502 145.846L240.899 165.143M220.358 150.028L222.518 147.115L226.221 146.463L230.424 147.123L253.558 143.051L254.243 144.268L220.358 150.028ZM273.87 140.613L269.054 137.809L266.677 138.227L262.383 141.151L273.87 140.613Z" stroke="#A1A1A1" stroke-width="0.8" stroke-miterlimit="10"/>
<path d="M369.139 436.104L363.809 437.042L361.402 423.368L366.645 422.445C372.388 421.435 375.838 423.706 376.545 427.724C377.252 431.741 374.686 435.128 369.139 436.104V436.104ZM367.112 424.592L364.937 424.975L366.583 434.326L368.585 433.973C369.375 433.936 370.156 433.745 370.866 433.415C371.574 433.085 372.191 432.625 372.669 432.071C373.144 431.519 373.466 430.887 373.607 430.228C373.749 429.571 373.706 428.904 373.481 428.282C373.46 427.64 373.266 427.02 372.914 426.468C372.56 425.913 372.057 425.441 371.443 425.087C370.829 424.733 370.12 424.506 369.368 424.423C368.614 424.337 367.836 424.396 367.091 424.595L367.112 424.592V424.592ZM380.734 434.063L378.327 420.389L387.921 418.7L388.311 420.916L381.785 422.065L382.346 425.254L387.328 424.377L388.162 426.57L382.81 427.512L383.477 431.296L390.177 430.117L390.567 432.332L380.734 434.063ZM397.876 431.046L393.134 431.881L390.727 418.206L395.535 417.36C399.254 416.705 401.261 417.782 401.651 419.999C401.778 420.62 401.663 421.271 401.323 421.857C400.982 422.446 400.434 422.94 399.759 423.266C400.686 423.269 401.561 423.547 402.229 424.052C402.897 424.557 403.313 425.255 403.406 426.023C403.872 428.672 401.748 430.364 397.876 431.046V431.046ZM395.821 419.371L394.233 419.651L394.868 423.254L396.325 422.998C398.196 422.669 399.053 421.811 398.857 420.695C398.66 419.578 397.627 419.053 395.712 419.39L395.821 419.371ZM396.788 424.866L395.135 425.157L395.871 429.337L397.568 429.039C399.569 428.686 400.619 427.777 400.382 426.426C400.144 425.074 398.833 424.507 396.745 424.874L396.788 424.866ZM406.795 429.476L404.388 415.802L407.563 415.243L409.97 428.917L406.795 429.476ZM418.601 415.641L420.609 427.044L417.411 427.607L415.403 416.204L410.509 417.065L410.109 414.795L422.944 412.536L423.778 414.729L418.601 415.641V415.641ZM356.411 454.764L346.482 487.549L336.541 489.299L324.809 466.605C324.647 466.057 324.319 465.561 323.857 465.165C323.395 464.768 322.813 464.484 322.167 464.34C318.988 463.694 315.702 463.386 312.385 463.424L312.447 462.503L328.457 459.685C329.506 459.49 330.58 459.618 331.483 460.044C332.381 460.467 333.045 461.162 333.351 462L340.377 478.724L346.557 456.499L356.411 454.764V454.764ZM398.942 468.192C397.544 460.247 384.197 462.151 383.657 458.568C383.467 457.488 384.528 456.13 387.194 455.345C390.328 454.538 393.609 454.442 396.699 455.065L397.208 448.401C394.27 448.023 391.246 448.09 388.272 448.599C378.983 450.234 373.155 455.476 374.12 461.343C374.884 465.685 379.987 467.275 383.807 468.089C387.629 468.903 389.127 469.642 389.34 470.979C389.696 472.996 386.936 474.392 384.223 474.906C380.876 475.566 377.436 475.5 374.232 474.715L373.695 481.607C377.224 482.082 380.866 482.002 384.441 481.37C394.317 479.631 400.064 474.44 399.008 468.181L398.942 468.192V468.192ZM425.209 473.692L433.91 472.16L420.997 443.395L412.948 444.812C412.093 444.965 411.294 445.323 410.65 445.844C410.008 446.361 409.551 447.019 409.335 447.733L400.191 478.095L410.068 476.357L411.237 471.526L423.332 469.397L425.209 473.692V473.692ZM412.824 464.876L415.921 452.778L420.759 463.572L412.824 464.876ZM369.855 452.398L367.365 483.873L357.969 485.527L360.435 454.056L369.855 452.398Z" fill="white"/>
</g>
<defs>
<filter id="filter0_d_10423_521" x="7.9917" y="5.38943" width="472.525" height="566.466" filterUnits="userSpaceOnUse" color-interpolation-filters="sRGB">
<feFlood flood-opacity="0" result="BackgroundImageFix"/>
<feColorMatrix in="SourceAlpha" type="matrix" values="0 0 0 0 0 0 0 0 0 0 0 0 0 0 0 0 0 0 127 0" result="hardAlpha"/>
<feOffset dy="1.6"/>
<feGaussianBlur stdDeviation="12.5"/>
<feColorMatrix type="matrix" values="0 0 0 0 0 0 0 0 0 0 0 0 0 0 0 0 0 0 0.1 0"/>
<feBlend mode="normal" in2="BackgroundImageFix" result="effect1_dropShadow_10423_521"/>
<feBlend mode="normal" in="SourceGraphic" in2="effect1_dropShadow_10423_521" result="shape"/>
</filter>
<linearGradient id="paint0_linear_10423_521" x1="371.815" y1="25.9251" x2="183.37" y2="195.383" gradientUnits="userSpaceOnUse">
<stop stop-color="white"/>
<stop offset="1" stop-color="#6A64D1"/>
</linearGradient>
<linearGradient id="paint1_linear_10423_521" x1="162.228" y1="189.668" x2="475.691" y2="489.491" gradientUnits="userSpaceOnUse">
<stop stop-color="#4840BB"/>
<stop offset="1" stop-color="#75CBCF"/>
</linearGradient>
<linearGradient id="paint2_linear_10423_521" x1="162.228" y1="189.668" x2="475.691" y2="489.491" gradientUnits="userSpaceOnUse">
<stop stop-color="#4840BB"/>
<stop offset="1" stop-color="#75CBCF"/>
</linearGradient>
<linearGradient id="paint3_linear_10423_521" x1="389.504" y1="443.062" x2="-8.15557" y2="269.656" gradientUnits="userSpaceOnUse">
<stop stop-color="#6EB4CC"/>
<stop offset="1" stop-color="#4941BC"/>
</linearGradient>
<linearGradient id="paint4_linear_10423_521" x1="389.504" y1="443.062" x2="-8.15552" y2="269.656" gradientUnits="userSpaceOnUse">
<stop stop-color="#6EB4CC"/>
<stop offset="1" stop-color="#4941BC"/>
</linearGradient>
<linearGradient id="paint5_linear_10423_521" x1="389.504" y1="443.062" x2="-8.15549" y2="269.656" gradientUnits="userSpaceOnUse">
<stop stop-color="#6EB4CC"/>
<stop offset="1" stop-color="#4941BC"/>
</linearGradient>
<linearGradient id="paint6_linear_10423_521" x1="389.504" y1="443.062" x2="-8.15547" y2="269.656" gradientUnits="userSpaceOnUse">
<stop stop-color="#6EB4CC"/>
<stop offset="1" stop-color="#4941BC"/>
</linearGradient>
<linearGradient id="paint7_linear_10423_521" x1="389.504" y1="443.062" x2="-8.15566" y2="269.656" gradientUnits="userSpaceOnUse">
<stop stop-color="#6EB4CC"/>
<stop offset="1" stop-color="#4941BC"/>
</linearGradient>
<linearGradient id="paint8_linear_10423_521" x1="389.504" y1="443.062" x2="-8.15562" y2="269.656" gradientUnits="userSpaceOnUse">
<stop stop-color="#6EB4CC"/>
<stop offset="1" stop-color="#4941BC"/>
</linearGradient>
<linearGradient id="paint9_linear_10423_521" x1="389.504" y1="443.062" x2="-8.15558" y2="269.656" gradientUnits="userSpaceOnUse">
<stop stop-color="#6EB4CC"/>
<stop offset="1" stop-color="#4941BC"/>
</linearGradient>
<linearGradient id="paint10_linear_10423_521" x1="389.504" y1="443.062" x2="-8.15558" y2="269.656" gradientUnits="userSpaceOnUse">
<stop stop-color="#6EB4CC"/>
<stop offset="1" stop-color="#4941BC"/>
</linearGradient>
<linearGradient id="paint11_linear_10423_521" x1="389.504" y1="443.062" x2="-8.15552" y2="269.656" gradientUnits="userSpaceOnUse">
<stop stop-color="#6EB4CC"/>
<stop offset="1" stop-color="#4941BC"/>
</linearGradient>
<linearGradient id="paint12_linear_10423_521" x1="389.504" y1="443.062" x2="-8.15546" y2="269.656" gradientUnits="userSpaceOnUse">
<stop stop-color="#6EB4CC"/>
<stop offset="1" stop-color="#4941BC"/>
</linearGradient>
<linearGradient id="paint13_linear_10423_521" x1="389.504" y1="443.062" x2="-8.15569" y2="269.656" gradientUnits="userSpaceOnUse">
<stop stop-color="#6EB4CC"/>
<stop offset="1" stop-color="#4941BC"/>
</linearGradient>
<linearGradient id="paint14_linear_10423_521" x1="389.504" y1="443.062" x2="-8.15565" y2="269.656" gradientUnits="userSpaceOnUse">
<stop stop-color="#6EB4CC"/>
<stop offset="1" stop-color="#4941BC"/>
</linearGradient>
<linearGradient id="paint15_linear_10423_521" x1="389.504" y1="443.062" x2="-8.15559" y2="269.656" gradientUnits="userSpaceOnUse">
<stop stop-color="#6EB4CC"/>
<stop offset="1" stop-color="#4941BC"/>
</linearGradient>
<linearGradient id="paint16_linear_10423_521" x1="389.504" y1="443.062" x2="-8.15556" y2="269.656" gradientUnits="userSpaceOnUse">
<stop stop-color="#6EB4CC"/>
<stop offset="1" stop-color="#4941BC"/>
</linearGradient>
<linearGradient id="paint17_linear_10423_521" x1="389.504" y1="443.062" x2="-8.15551" y2="269.656" gradientUnits="userSpaceOnUse">
<stop stop-color="#6EB4CC"/>
<stop offset="1" stop-color="#4941BC"/>
</linearGradient>
<linearGradient id="paint18_linear_10423_521" x1="389.504" y1="443.062" x2="-8.15551" y2="269.656" gradientUnits="userSpaceOnUse">
<stop stop-color="#6EB4CC"/>
<stop offset="1" stop-color="#4941BC"/>
</linearGradient>
<linearGradient id="paint19_linear_10423_521" x1="389.504" y1="443.062" x2="-8.15543" y2="269.656" gradientUnits="userSpaceOnUse">
<stop stop-color="#6EB4CC"/>
<stop offset="1" stop-color="#4941BC"/>
</linearGradient>
<linearGradient id="paint20_linear_10423_521" x1="389.504" y1="443.062" x2="-8.15566" y2="269.656" gradientUnits="userSpaceOnUse">
<stop stop-color="#6EB4CC"/>
<stop offset="1" stop-color="#4941BC"/>
</linearGradient>
<linearGradient id="paint21_linear_10423_521" x1="389.504" y1="443.062" x2="-8.15565" y2="269.656" gradientUnits="userSpaceOnUse">
<stop stop-color="#6EB4CC"/>
<stop offset="1" stop-color="#4941BC"/>
</linearGradient>
<linearGradient id="paint22_linear_10423_521" x1="389.504" y1="443.062" x2="-8.15558" y2="269.656" gradientUnits="userSpaceOnUse">
<stop stop-color="#6EB4CC"/>
<stop offset="1" stop-color="#4941BC"/>
</linearGradient>
<linearGradient id="paint23_linear_10423_521" x1="389.504" y1="443.062" x2="-8.15555" y2="269.656" gradientUnits="userSpaceOnUse">
<stop stop-color="#6EB4CC"/>
<stop offset="1" stop-color="#4941BC"/>
</linearGradient>
<linearGradient id="paint24_linear_10423_521" x1="389.504" y1="443.062" x2="-8.15552" y2="269.656" gradientUnits="userSpaceOnUse">
<stop stop-color="#6EB4CC"/>
<stop offset="1" stop-color="#4941BC"/>
</linearGradient>
<linearGradient id="paint25_linear_10423_521" x1="389.504" y1="443.062" x2="-8.15547" y2="269.656" gradientUnits="userSpaceOnUse">
<stop stop-color="#6EB4CC"/>
<stop offset="1" stop-color="#4941BC"/>
</linearGradient>
<linearGradient id="paint26_linear_10423_521" x1="389.504" y1="443.062" x2="-8.1557" y2="269.656" gradientUnits="userSpaceOnUse">
<stop stop-color="#6EB4CC"/>
<stop offset="1" stop-color="#4941BC"/>
</linearGradient>
<linearGradient id="paint27_linear_10423_521" x1="389.504" y1="443.062" x2="-8.15567" y2="269.656" gradientUnits="userSpaceOnUse">
<stop stop-color="#6EB4CC"/>
<stop offset="1" stop-color="#4941BC"/>
</linearGradient>
<linearGradient id="paint28_linear_10423_521" x1="389.504" y1="443.062" x2="-8.15564" y2="269.656" gradientUnits="userSpaceOnUse">
<stop stop-color="#6EB4CC"/>
<stop offset="1" stop-color="#4941BC"/>
</linearGradient>
<linearGradient id="paint29_linear_10423_521" x1="389.504" y1="443.062" x2="-8.15559" y2="269.656" gradientUnits="userSpaceOnUse">
<stop stop-color="#6EB4CC"/>
<stop offset="1" stop-color="#4941BC"/>
</linearGradient>
<linearGradient id="paint30_linear_10423_521" x1="389.504" y1="443.062" x2="-8.15558" y2="269.656" gradientUnits="userSpaceOnUse">
<stop stop-color="#6EB4CC"/>
<stop offset="1" stop-color="#4941BC"/>
</linearGradient>
<linearGradient id="paint31_linear_10423_521" x1="389.504" y1="443.062" x2="-8.15536" y2="269.656" gradientUnits="userSpaceOnUse">
<stop stop-color="#6EB4CC"/>
<stop offset="1" stop-color="#4941BC"/>
</linearGradient>
<linearGradient id="paint32_linear_10423_521" x1="389.504" y1="443.062" x2="-8.15572" y2="269.656" gradientUnits="userSpaceOnUse">
<stop stop-color="#6EB4CC"/>
<stop offset="1" stop-color="#4941BC"/>
</linearGradient>
<linearGradient id="paint33_linear_10423_521" x1="389.504" y1="443.062" x2="-8.15572" y2="269.656" gradientUnits="userSpaceOnUse">
<stop stop-color="#6EB4CC"/>
<stop offset="1" stop-color="#4941BC"/>
</linearGradient>
<linearGradient id="paint34_linear_10423_521" x1="389.504" y1="443.062" x2="-8.15567" y2="269.656" gradientUnits="userSpaceOnUse">
<stop stop-color="#6EB4CC"/>
<stop offset="1" stop-color="#4941BC"/>
</linearGradient>
<linearGradient id="paint35_linear_10423_521" x1="389.504" y1="443.062" x2="-8.15552" y2="269.656" gradientUnits="userSpaceOnUse">
<stop stop-color="#6EB4CC"/>
<stop offset="1" stop-color="#4941BC"/>
</linearGradient>
<linearGradient id="paint36_linear_10423_521" x1="389.504" y1="443.062" x2="-8.15547" y2="269.656" gradientUnits="userSpaceOnUse">
<stop stop-color="#6EB4CC"/>
<stop offset="1" stop-color="#4941BC"/>
</linearGradient>
<linearGradient id="paint37_linear_10423_521" x1="389.504" y1="443.062" x2="-8.15556" y2="269.656" gradientUnits="userSpaceOnUse">
<stop stop-color="#6EB4CC"/>
<stop offset="1" stop-color="#4941BC"/>
</linearGradient>
<linearGradient id="paint38_linear_10423_521" x1="389.504" y1="443.062" x2="-8.1555" y2="269.656" gradientUnits="userSpaceOnUse">
<stop stop-color="#6EB4CC"/>
<stop offset="1" stop-color="#4941BC"/>
</linearGradient>
<linearGradient id="paint39_linear_10423_521" x1="389.504" y1="443.062" x2="-8.15569" y2="269.656" gradientUnits="userSpaceOnUse">
<stop stop-color="#6EB4CC"/>
<stop offset="1" stop-color="#4941BC"/>
</linearGradient>
<linearGradient id="paint40_linear_10423_521" x1="389.504" y1="443.062" x2="-8.15554" y2="269.656" gradientUnits="userSpaceOnUse">
<stop stop-color="#6EB4CC"/>
<stop offset="1" stop-color="#4941BC"/>
</linearGradient>
<linearGradient id="paint41_linear_10423_521" x1="389.504" y1="443.062" x2="-8.15553" y2="269.656" gradientUnits="userSpaceOnUse">
<stop stop-color="#6EB4CC"/>
<stop offset="1" stop-color="#4941BC"/>
</linearGradient>
<linearGradient id="paint42_linear_10423_521" x1="389.504" y1="443.062" x2="-8.15563" y2="269.656" gradientUnits="userSpaceOnUse">
<stop stop-color="#6EB4CC"/>
<stop offset="1" stop-color="#4941BC"/>
</linearGradient>
<linearGradient id="paint43_linear_10423_521" x1="389.504" y1="443.062" x2="-8.15557" y2="269.656" gradientUnits="userSpaceOnUse">
<stop stop-color="#6EB4CC"/>
<stop offset="1" stop-color="#4941BC"/>
</linearGradient>
<linearGradient id="paint44_linear_10423_521" x1="238.976" y1="99.0443" x2="250.127" y2="163.506" gradientUnits="userSpaceOnUse">
<stop offset="0.144" stop-color="#FEFEFE"/>
<stop offset="1" stop-color="#C1C1C1"/>
</linearGradient>
<clipPath id="clip0_10423_521">
<rect width="406" height="515" fill="white" transform="translate(0 70.3833) rotate(-9.98311)"/>
</clipPath>
</defs>
</svg>
