<svg width="22" height="22" viewBox="0 0 22 22" fill="none" xmlns="http://www.w3.org/2000/svg">
<path d="M10.4134 1.40591C10.6638 0.633819 11.7565 0.633819 12.0068 1.40591L13.9617 7.42134C14.0163 7.58957 14.1227 7.7362 14.2657 7.84026C14.4088 7.94432 14.581 8.00047 14.7579 8.00068H21.0855C21.8964 8.00068 22.2347 9.03991 21.5779 9.51763L16.4592 13.2356C16.3162 13.3397 16.2098 13.4864 16.1553 13.6546C16.1007 13.8228 16.1008 14.004 16.1554 14.1722L18.1103 20.1887C18.3617 20.9608 17.4775 21.603 16.8206 21.1263L11.702 17.4072C11.5588 17.3033 11.3865 17.2474 11.2096 17.2474C11.0327 17.2474 10.8604 17.3033 10.7172 17.4072L5.5996 21.1263C4.94274 21.603 4.0596 20.9608 4.30998 20.1887L6.26484 14.1722C6.31949 14.004 6.31954 13.8228 6.26497 13.6546C6.2104 13.4864 6.10401 13.3397 5.96103 13.2356L0.841314 9.51658C0.184457 9.03991 0.52179 8.00068 1.33369 8.00068H7.66027C7.837 8.00055 8.00917 7.94455 8.15217 7.84069C8.29517 7.73683 8.40167 7.59042 8.45646 7.42239L10.4134 1.40487V1.40591Z" fill="#230B59"/>
</svg>
